<?xml version="1.0" encoding="UTF-8"?><svg id="Capa_2" xmlns="http://www.w3.org/2000/svg" viewBox="0 0 37.7 29.88"><defs><style>.cls-1{fill:#676767;}.cls-2{fill:#3c3c3b;}.cls-3{fill:#1d1d1b;}</style></defs><g id="Capa_1-2"><g><g><path class="cls-3" d="m36.67,12.06c1.43-1.65,1.38-4.89-.26-7.84-1.86-3.34-5.08-5.02-7.24-3.84l-.03-.05L1.67,17.07l7.36,11.73,26.03-15.75c.3-.07.59-.18.87-.35.28-.17.53-.38.74-.63h.01s0-.01,0-.01Z"/><ellipse class="cls-1" cx="5.08" cy="23.2" rx="4.55" ry="7.04" transform="translate(-9.23 4.24) rotate(-24.68)"/><g><path class="cls-2" d="m11.93,13.89c.15.98-1.16,1.99-2.92,2.25s-3.3-.33-3.45-1.31c-.05-.3.64-.45.84-.73.45-.64.87-1.34,2.08-1.52,1.76-.26,3.3.33,3.45,1.31Z"/><path class="cls-1" d="m11.31,13.8l-.43-.84-.59-2.72s0-.04,0-.07c-.05-.57-1.06-.95-2.24-.84-1.19.11-2.1.67-2.05,1.24,0,.03.02.05.02.08l.53,2.99-.21.35.11,1.87c3.11,1.22,5.11-.92,5.11-.92l-.26-1.14Z"/></g><g><path class="cls-2" d="m25.62,6.16c.15.98-1.16,1.99-2.92,2.25s-3.3-.33-3.45-1.31c-.05-.3.64-.45.84-.73.45-.64.87-1.34,2.08-1.52,1.76-.26,3.3.33,3.45,1.31Z"/><path class="cls-1" d="m24.99,6.07l-.43-.84-.59-2.72s0-.04,0-.07c-.05-.57-1.06-.95-2.24-.84-1.19.11-2.1.67-2.05,1.24,0,.03.02.05.02.08l.53,2.99-.21.35.11,1.87c3.11,1.22,5.11-.92,5.11-.92l-.26-1.14Z"/></g><g><path class="cls-2" d="m14.54,15.23c-.15.98,1.16,1.99,2.92,2.25s3.3-.33,3.45-1.31c.05-.3-.17-1.83-2.92-2.25-1.76-.27-3.3.33-3.45,1.31Z"/><path class="cls-1" d="m15.17,15.13l.43-.84.59-2.72s0-.04,0-.07c.05-.57,1.06-.95,2.24-.84,1.19.11,2.1.67,2.05,1.24,0,.03-.02.05-.02.08l-.53,2.99.21.35-.11,1.87c-3.11,1.22-5.11-.92-5.11-.92l.26-1.14Z"/></g><g><path class="cls-2" d="m28.67,6.97c-.15.98,1.16,1.99,2.92,2.25s3.3-.33,3.45-1.31c.05-.3-.23-.82-.43-1.11-.45-.64-1.27-.97-2.49-1.15-1.76-.26-3.3.33-3.45,1.31Z"/><path class="cls-1" d="m29.29,6.87l.43-.84.59-2.72s0-.04,0-.07c.05-.57,1.06-.95,2.24-.84,1.19.11,2.1.67,2.05,1.24,0,.03-.02.05-.02.08l-.53,2.99.21.35-.11,1.87c-3.11,1.22-5.11-.92-5.11-.92l.26-1.14Z"/></g></g><ellipse class="cls-3" cx="4.94" cy="23.1" rx="3.65" ry="5.65" transform="translate(-9.2 4.17) rotate(-24.68)"/></g></g></svg>