<?xml version="1.0" encoding="UTF-8"?>
<svg id="Capa_2" xmlns="http://www.w3.org/2000/svg" xmlns:xlink="http://www.w3.org/1999/xlink" viewBox="0 0 86.44 38.17">
<defs><style>.cls-1,.cls-2{fill:#d8d8d8;}.cls-3{fill:#989898;}.cls-4{fill:#dca58f;}.cls-4,.cls-5,.cls-6{stroke:#9a7469;stroke-miterlimit:10;stroke-width:.25px;}.cls-7{clip-path:url(#clippath-2);}.cls-8{clip-path:url(#clippath-1);}.cls-9,.cls-5,.cls-10{fill:none;}.cls-9,.cls-2{stroke:#989898;stroke-linejoin:round;stroke-width:.29px;}.cls-11{fill:#1d1d1b;fill-rule:evenodd;}.cls-12{fill:#3c3c3b;}.cls-13{clip-path:url(#clippath);}.cls-6{fill:#cb9988;}.cls-14{fill:url(#Degradado_sin_nombre_37);}</style><clipPath id="clippath"><rect class="cls-10" x="40.21" width="38.17" height="38.17"/></clipPath><linearGradient id="Degradado_sin_nombre_37" x1="596.07" y1="845.6" x2="596.07" y2="837.92" gradientTransform="translate(-545.54 -822.11) rotate(.37)" gradientUnits="userSpaceOnUse"><stop offset="0" stop-color="#6a6a6a"/><stop offset=".02" stop-color="#717171"/><stop offset=".1" stop-color="#909091"/><stop offset=".19" stop-color="#a9a9a9"/><stop offset=".29" stop-color="#bababb"/><stop offset=".39" stop-color="#c4c4c5"/><stop offset=".51" stop-color="#c8c8c9"/><stop offset=".73" stop-color="#c6c6c7"/><stop offset=".81" stop-color="#bfbfc0"/><stop offset=".87" stop-color="#b3b3b4"/><stop offset=".92" stop-color="#a2a2a3"/><stop offset=".96" stop-color="#8c8c8d"/><stop offset=".99" stop-color="#727273"/><stop offset=".99" stop-color="#727273"/></linearGradient><clipPath id="clippath-1"><path class="cls-10" d="m85.92,30.37c0,.09-26.46-.74-26.46-.74-1.52,0-2.76-3.05-2.76-6.82s1.32-6.93,2.85-6.93l26.89.18-.52,14.3Z"/></clipPath><clipPath id="clippath-2"><path class="cls-10" d="m56.57,20.68l-.06,2.89,6.85-3.86s2.65-1.59.61-.91c-.19.06-.94.33-1.14.34-.69.06-1.69-.06-1.8-.46l-.13-.29-4.34,2.27Z"/></clipPath></defs><g id="Capa_1-2"><g class="cls-13"><g><path class="cls-14" d="m54.31,27.36l.05-7.62-16.61-.16c-1.12.18-1.84,1.87-1.85,3.81-.01,1.94.81,3.64,1.93,3.83l16.47.15Z"/><path class="cls-11" d="m54.76,16.04l.28,13.72-24.27-.5h0c-1.77,0-28.61-.6-30.17-2.05l-.1-.09h0c-.67-2.69-.67-5.5,0-8.18h0s.06-.07.06-.07c1.59-1.43,28.44-2.34,30.23-2.34h0s23.96-.49,23.96-.49Z"/><g><g><path class="cls-1" d="m54.76,29.9c-.08.03-.2.05-.32.05v-.15.15c-1.59,0-2.83-3.1-2.83-7.05,0-3.96,1.24-7.06,2.83-7.06.12,0,.25.02.37.06l4.99-.06c1.59,0,2.83,3.1,2.84,7.05,0,3.96-1.24,7.06-2.83,7.06l-5.04-.05Z"/><path class="cls-3" d="m59.8,15.99c1.48,0,2.68,3.09,2.69,6.91,0,3.82-1.2,6.91-2.68,6.91h0l-5.04-.05c-.11.03-.22.05-.33.05h0c-1.48,0-2.68-3.09-2.69-6.91,0-3.82,1.2-6.91,2.68-6.91.11,0,.22.02.33.05l5.04-.05h0m0-.29h0l-5,.05c-.12-.03-.25-.05-.37-.05-1.67,0-2.97,3.17-2.97,7.21,0,4.04,1.31,7.2,2.98,7.2.12,0,.25-.02.37-.05l5,.05c1.67,0,2.98-3.17,2.98-7.21,0-4.04-1.31-7.2-2.98-7.2h0Z"/></g><path class="cls-2" d="m55.9,29.81c-1.48,0-2.69-3.69-2.69-6.91,0-3.82,1.2-6.91,2.68-6.91"/><path class="cls-2" d="m57.73,29.81c-1.48,0-2.69-3.09-2.69-6.91,0-3.82,1.2-6.91,2.68-6.91"/><path class="cls-2" d="m56.71,22.67c0-3.82,1.2-6.68,2.68-6.68"/><line class="cls-9" x1="56.71" y1="22.67" x2="56.71" y2="22.67"/><line class="cls-9" x1="55.04" y1="22.67" x2="55.04" y2="22.67"/><line class="cls-9" x1="56.71" y1="22.67" x2="55.04" y2="22.67"/><ellipse class="cls-2" cx="55.89" cy="21.74" rx=".49" ry=".64"/><path class="cls-3" d="m59.63,16.02c1.52,0,2.66,3.16,2.66,6.93s-1.24,6.82-2.76,6.82c-1.52,0-2.76-3.05-2.76-6.82s1.32-6.93,2.85-6.93"/></g><g class="cls-8"><path class="cls-12" d="m67.87,16.68s0,0,0,0c0,0-9.21,0-9.21,0-1.5,0-2.76,2.71-2.78,5.96-.02,3.25,1.18,5.89,2.68,5.89,0,0,0,0,0,0,0,0,.02,0,.03,0h24.87l-.11-11.85h-15.47Z"/></g><g><g><path class="cls-6" d="m72.42,16.35s.12.78-.11,1.12-1.11,1.61-1.11,1.61l-.6.24-.56-.15s-.04-3.47,2.41-2.72"/><path class="cls-6" d="m71.23,16.57s-.02.93-.33,1.42-.89,1.34-1.13,1.43-1.39.6-1.81,0l.84-3.45,2.44.59Z"/><path class="cls-6" d="m65.77,19.89s.5.27.56.32.77-.1.99-.12,1.41-1.02,1.88-1.27.6-1.96.6-1.96l-3.4-.35-.53,3.34"/><path class="cls-4" d="m65.87,18.07c.41.04.9.4.93,1.03,0,.28-.43.54-.92.74-.64.27-1.38.44-1.38.44,0,0-1.58-.69-1.74-1.15"/><path class="cls-4" d="m67.44,13.78s-.57.2-.87.34c0,0-.02,0-.02.01-.16.07-.72.64-1.62,1.34-.76.6-1.78,1.29-3,1.89,0,0-1.17.19-1.01,1.05.03.15.1.26.2.36.48.46,1.63.38,1.63.38,0,0,2.12-.39,4.4-1.74,0,0,.51-.52,1.48-.38s3,.11,3.84-.57c0,0,2.04-1.11,2.48-1.62s1.5-.96,2.33-1.24,5.68-1.2,5.68-1.2l.11-7.63s-7.55,4.96-9.68,5.21-3.18.66-3.74.52-2.35.27-3.45.79l-1.82.4s-.99.12-1.16,1.08-1.2,4.51-1.4,4.64c0,0,1.65-.6,4.26-2.87"/></g><path class="cls-5" d="m64.77,14.07s.43.67.96.74"/><path class="cls-5" d="m63.85,14.95s.67.44,1.18.28"/><path class="cls-5" d="m67.25,17.2s.06.57.4.79"/><path class="cls-5" d="m66.63,17.53s-.12.37.04.6"/>
<path class="cls-5" d="m68.44,18.69s.33.21.59.12"/><path class="cls-5" d="m70.12,18.06s.18.11.35.04"/><path class="cls-5" d="m71.57,17.44s.21.05.34-.06"/></g><g class="cls-7">
<path class="cls-2" d="m64.9,18.32c0-.54-1.28-1.4-1.28-1.4-.88,1.71-6.84,4.08-6.84,4.08l-.07,1.67s6.78-2.68,8.19-4.35Z"/></g></g></g></g></svg>