<?xml version="1.0" encoding="UTF-8"?><svg id="Capa_2" xmlns="http://www.w3.org/2000/svg" xmlns:xlink="http://www.w3.org/1999/xlink" viewBox="0 0 45.28 38.17"><defs><style>.cls-1{fill:#fff;}.cls-2{fill:#3c3c3b;}.cls-3{clip-path:url(#clippath);}.cls-4{fill:none;}.cls-5{fill:#1d1d1b;}</style><clipPath id="clippath"><rect class="cls-4" x="3.56" width="38.17" height="38.17"/></clipPath></defs><g id="Capa_1-2"><g class="cls-3"><rect class="cls-2" y="15.3" width="45.28" height="9.7"/><g><path class="cls-1" d="m11.95,15.32c-.6-.03-2.56-.17-2.61.69-.01.18.05.36.11.54.09.27.17.57.17.86,0,.48-.16.77-.16.99,0,.28.21.59.32.83.03.06.05.11.06.18,0,.08-.02.15-.04.23-.3.85-.89,1.48-.27,2.35.1.14.22.27.3.42.13.25.04.48-.03.73-.06.22-.11.44-.1.66.02.3.21.51.37.75l.35.46h.89s.64-9.7.64-9.7Z"/><path class="cls-1" d="m33.33,15.32c.6-.03,2.56-.17,2.61.69.01.18-.05.36-.11.54-.09.27-.17.57-.17.86,0,.48.16.77.16.99,0,.28-.21.59-.32.83-.03.06-.05.11-.06.18,0,.08.02.15.04.23.3.85.89,1.48.27,2.35-.1.14-.22.27-.3.42-.13.25-.04.48.03.73.06.22.11.44.1.66-.02.3-.21.51-.37.75l-.35.46h-.89s-.64-9.7-.64-9.7Z"/><rect class="cls-5" x="10.8" y="15.32" width="23.91" height="9.7"/></g></g></g></svg>