<?xml version="1.0" encoding="UTF-8"?><svg id="Capa_2" xmlns="http://www.w3.org/2000/svg" xmlns:xlink="http://www.w3.org/1999/xlink" viewBox="0 0 45.28 38.17"><defs><style>.cls-1{fill:#fff;}.cls-2{fill:#3c3c3b;}.cls-3{clip-path:url(#clippath);}.cls-4{fill:none;}.cls-5{fill:#1d1d1b;}</style><clipPath id="clippath"><rect class="cls-4" x="3.56" width="38.17" height="38.17"/></clipPath></defs><g id="Capa_1-2"><g class="cls-3"><g><rect class="cls-2" y="17.58" width="45.28" height="9.7"/><rect class="cls-2" x="28.93" y="11.67" width="13.71" height="4.49"/><path class="cls-1" d="m11.95,17.59c-1.82-.11-3.12-.08-2.33,2.1-.1.86-.29,1.16.16,1.82,0,1.14-1.13,2.11.05,3.18.21.47-.21.92-.13,1.4.05.46.47.84.72,1.21h.89l.64-9.7Z"/><path class="cls-1" d="m30.22,17.59c1.82-.11,3.12-.08,2.33,2.1.1.86.29,1.16-.16,1.82,0,1.14,1.13,2.11-.05,3.18-.21.47.21.92.13,1.4-.05.46-.47.84-.72,1.21h-.89s-.64-9.7-.64-9.7Z"/><path class="cls-1" d="m29.48,11.53c.6-.02,2.56-.09,2.61.36.01.1-.05.19-.11.28-.09.14-.17.3-.17.45,0,.25.16.4.16.51,0,.14-.21.31-.32.43-.03.03-.05.06-.06.09,0,.04.02.08.04.12.3.44.89.77.27,1.22-.1.07-.22.14-.3.22-.13.13-.04.25.03.38.06.11.11.23.1.35-.02.16-.21.27-.37.39l-.35.24h-.89s-.64-5.05-.64-5.05Z"/><polygon class="cls-5" points="31.57 27.29 10.8 27.29 10.8 17.59 30.99 10.87 31.57 27.29"/></g></g></g></svg>