<?xml version="1.0" encoding="UTF-8"?><svg xmlns="http://www.w3.org/2000/svg" xmlns:xlink="http://www.w3.org/1999/xlink" viewBox="0 0 57.46 38.17"><defs><style>.cls-1{clip-path:url(#clippath-2);}.cls-2{fill:#ce9163;}.cls-3{isolation:isolate;}.cls-4{clip-path:url(#clippath-1);}.cls-5{fill:#676767;}.cls-6{fill:#3c3c3b;}.cls-7{clip-path:url(#clippath);}.cls-8{fill:none;}.cls-9{fill:#505c5e;mix-blend-mode:multiply;opacity:.2;}</style><clipPath id="clippath"><rect class="cls-8" x="9.65" width="38.17" height="38.17"/></clipPath><clipPath id="clippath-1"><path class="cls-8" d="m19.88,12.96H2.84c-1.41,0-2.56.48-2.55,1.06,1.55,12.87-7.57,11.09,19.59,11.15v-12.2Z"/></clipPath><clipPath id="clippath-2"><path class="cls-8" d="m37.58,12.94h17.04c1.41,0,2.56.48,2.55,1.06-1.55,12.87,7.57,11.09-19.59,11.15v-12.2Z"/></clipPath></defs><g class="cls-3"><g id="Capa_2"><g id="Capa_1-2"><g class="cls-7"><g><g><g><path class="cls-6" d="m19.88,12.96H2.84c-1.41,0-2.56.48-2.55,1.06,1.55,12.87-7.57,11.09,19.59,11.15v-12.2Z"/><path class="cls-9" d="m19.64,12.96H2.9c-1.38,0-2.52.43-2.61.98h18.91s.08-.48.44-.98Z"/><g class="cls-4"><path class="cls-6" d="m19.78,12.96c-12.67.27-17.18-.58-18.72.37-.4.25-.69.14-.78.68-.14.88.15,4.68.15,4.68,2.87.06,9.51-.45,19.26.06l.09-.13v-5.67Z"/></g><path class="cls-6" d="m18.82,14.02v10.09c0,.58.47,1.06,1.06,1.06.62.06,1.12-.68,1.06-1.06,0-.24,0-10.08,0-10.12-.02-.57-.48-1.02-1.06-1.02s-1.06.47-1.06,1.06Z"/></g><g><g><path class="cls-5" d="m28.03,18.02h-8.24c-.44.07-.53.66-.54,1.05,0,.39.11.99.54,1.05,0,0,8.24,0,8.24,0v-2.1Z"/><path class="cls-5" d="m28.03,18h-8.24c-.18,0-.33.17-.43.43h8.67v-.43Z"/><g><path class="cls-6" d="m28.02,18.02c-.69-.03-.69,2.13,0,2.1.69.03.69-2.13,0-2.1Z"/><path class="cls-2" d="m28.06,18.34c-.47-.02-.47,1.45,0,1.43.47.02.47-1.45,0-1.43Z"/></g></g><g><path class="cls-5" d="m32.69,20.55h-12.9c-.39.03-.54.66-.54,1.05,0,.58.24,1.05.54,1.05h12.9v-2.1Z"/><path class="cls-5" d="m32.69,20.55h-12.9c-.18,0-.33.17-.43.43h13.33v-.43Z"/><g><path class="cls-6" d="m32.68,20.55c-.69-.03-.69,2.13,0,2.1.69.03.69-2.13,0-2.1Z"/><path class="cls-2" d="m32.72,20.88c-.47-.02-.47,1.45,0,1.43.47.02.47-1.45,0-1.43Z"/></g></g><g><path class="cls-5" d="m22.59,15.48h-2.8c-.39.03-.54.66-.54,1.05,0,.58.24,1.05.54,1.05h2.8v-2.1Z"/><path class="cls-5" d="m22.59,15.48h-2.8c-.18,0-.33.17-.43.43h3.23v-.43Z"/><g><path class="cls-6" d="m22.58,15.48c-.69-.03-.69,2.13,0,2.1.69.03.69-2.13,0-2.1Z"/><path class="cls-2" d="m22.62,15.8c-.47-.02-.47,1.45,0,1.43.47.02.47-1.45,0-1.43Z"/></g></g></g></g><g><g><path class="cls-6" d="m37.58,12.94h17.04c1.41,0,2.56.48,2.55,1.06-1.55,12.87,7.57,11.09-19.59,11.15v-12.2Z"/><path class="cls-9" d="m37.82,12.94h16.74c1.38,0,2.52.43,2.61.98h-18.91s-.08-.48-.44-.98Z"/><g class="cls-1"><path class="cls-6" d="m37.67,12.94c12.67.27,17.18-.58,18.72.37.4.25.69.14.78.68.14.88-.15,4.68-.15,4.68-2.87.06-9.51-.45-19.26.06l-.09-.13v-5.67Z"/></g><path class="cls-6" d="m38.64,14v10.09c0,.58-.47,1.06-1.06,1.06-.62.06-1.12-.68-1.06-1.06,0-.24,0-10.08,0-10.12.02-.57.48-1.02,1.06-1.02s1.06.47,1.06,1.06Z"/></g><g><g><path class="cls-5" d="m30.2,18h7.46c.44.07.53.66.54,1.05,0,.39-.11.99-.54,1.05,0,0-7.46,0-7.46,0v-2.1Z"/><path class="cls-5" d="m30.26,18h7.46c.18,0,.33.17.43.43h-7.89v-.43Z"/><g><path class="cls-6" d="m30.22,18c.69-.03.69,2.13,0,2.1-.69.03-.69-2.13,0-2.1Z"/><path class="cls-2" d="m30.18,18.32c.47-.02.47,1.45,0,1.43-.47.02-.47-1.45,0-1.43Z"/></g></g><g><path class="cls-5" d="m34.86,20.53h2.8c.39.03.54.66.54,1.05,0,.58-.24,1.05-.54,1.05h-2.8v-2.1Z"/><path class="cls-5" d="m34.86,20.53h2.8c.18,0,.33.17.43.43h-3.23v-.43Z"/><g><path class="cls-6" d="m34.88,20.54c.69-.03.69,2.13,0,2.1-.69.03-.69-2.13,0-2.1Z"/><path class="cls-2" d="m34.84,20.86c.47-.02.47,1.45,0,1.43-.47.02-.47-1.45,0-1.43Z"/></g></g><g><path class="cls-5" d="m24.77,15.46h12.9c.39.03.54.66.54,1.05,0,.58-.24,1.05-.54,1.05h-12.9v-2.1Z"/><path class="cls-5" d="m24.77,15.46h12.9c.18,0,.33.17.43.43h-13.33v-.43Z"/><g><path class="cls-6" d="m24.78,15.46c.69-.03.69,2.13,0,2.1-.69.03-.69-2.13,0-2.1Z"/><path class="cls-2" d="m24.74,15.78c.47-.02.47,1.45,0,1.43-.47.02-.47-1.45,0-1.43Z"/></g></g></g></g></g></g></g></g></g></svg>