<?xml version="1.0" encoding="UTF-8"?><svg id="Capa_2" xmlns="http://www.w3.org/2000/svg" viewBox="0 0 25.15 33.74"><defs><style>.cls-1{fill:#676767;}.cls-2{fill:#1d1d1b;}</style></defs><g id="Capa_1-2"><g><polygon class="cls-1" points="17.63 29.11 17.63 28.47 15.27 28.47 15.16 28.47 12.8 28.47 12.8 29.11 12.65 29.35 12.65 31.15 12.65 33.26 12.8 33.47 12.8 33.74 15.16 33.74 15.27 33.74 17.63 33.74 17.63 33.47 17.78 33.26 17.78 31.15 17.78 29.35 17.63 29.11"/><g><polygon class="cls-2" points="3.36 3.09 5.26 3.09 5.49 3.3 12.55 3.3 16.98 3 17.38 3.15 22.3 3.15 22.13 10.62 18.57 10.62 18.23 10.89 18.26 18.77 18.6 20 18.68 22.72 18.3 23.62 18.34 27.57 17.79 28.47 12.47 28.47 12.21 27.62 12.17 23.66 11.79 22.6 11.83 19.91 12.17 18.89 11.96 10.89 11.62 10.43 5.53 10.64 5.19 10.89 3.36 10.89 3.36 3.09"/><polygon class="cls-1" points="0 0 0 13.96 2.77 13.96 3.36 11.87 3.36 2.21 2.64 0 0 0"/><polygon class="cls-1" points="22.13 2.77 22.13 10.89 24.04 10.89 25.15 7.96 25.15 5.53 23.91 2.77 22.13 2.77"/></g></g></g></svg>