<?xml version="1.0" encoding="UTF-8"?><svg id="Capa_2" xmlns="http://www.w3.org/2000/svg" viewBox="0 0 37.48 29.55"><defs><style>.cls-1{fill:#383836;}.cls-2{fill:#fff;}.cls-3{fill:#676767;}.cls-4{fill:#3c3c3b;}.cls-5{fill:#858585;}.cls-6{fill:#1d1d1b;}</style></defs><g id="Capa_1-2"><g><g><path class="cls-6" d="m15.39,6.86c-.67.34-1.12.87-1.39,1.57-.13,0-.22.07-.33.12-.27.39-.78.51-1.05.91-.14,0-.19.15-.31.2-.04.22-.23.4-.21.65-.12.14-.04.3-.05.46-.2.43-.52.78-.79,1.18-.33.06-.47.41-.78.51-2.53-1.3-7.82-3.77-7.9-3.89C1.14,7.91-.04,6.53,0,4.17.05,1.85,1.23.02,2.66.02c.5.24,1,.49,1.5.75,3.78,1.87,7.53,3.86,11.27,5.79.09.1.14.22-.04.3Z"/><path class="cls-6" d="m24.28,24.56c-1.85,1.25-3.57,2.71-5.44,3.93-.4.17-.7.41-.67.9-.12-.11-.06-.24-.06-.37,0-.12-.03-.22-.16-.24-.45-.06-.89-.1-1.34.02-.12.02-.22-.04-.32-.08.22-1.25-.18-2.52.06-3.76.02-.03.05-.06.07-.09.04,0,.08.01.13.02.18.12.31.36.59.21.4.04.73-.07.99-.39.27-.21.58-.38.72-.72.23-.38.46-.75.7-1.13.05-.01.09-.03.14-.04-.04.23.05.41.21.57.02.29-.08.58.06.86,0,.21,0,.43,0,.64,0,.1.04.14.13.13.49.19,1.22.16,1.38-.43.08-.19.12-.4-.11-.54-.1-.06-.11-.18-.1-.29,0-1.35-.08-2.69-.14-4.04,0-.16.02-.38-.17-.48-.31-.17-.58,0-.6.35.03.85.06,1.7.11,2.55.04.41.02.82.02,1.23,0,.07,0,.14-.09.15-.14.01-.14-.25-.17-.35-.02-1.15-.02-2.39-.18-3.5-.11-.06-.2.08-.28.15-.55.28-1.02.67-1.45,1.1-.3.1-.53.32-.77.52-.02,0-.04,0-.06,0-.23-.5-.09-1.14-.14-1.69,0-.11.05-.24-.07-.33,0-.09,0-.17.01-.26,1.36-1.06,2.87-1.95,4.13-3.11.19-.26-.03-.54.04-.8.02-.09.04-.18.06-.26.09-.26.25-.48.4-.71.58-.44,1.2-.83,1.75-1.31.1,0,.17-.06.24-.13.07,0,.16.07.17-.07.29-.32.44-.72.64-1.09.02-.02.04-.04.06-.06.08-.04.13-.11.13-.2.02-.02.04-.04.06-.06.09-.03.14-.1.13-.2.02,0,.04,0,.06-.01.18.01.2-.11.21-.24.1-.09.25-.14.31-.27.13,0,.19-.06.19-.19.02-.02.05-.05.07-.07.37-.13.64-.44,1.04-.52.24-.07.77.06.85-.19.24.08.76.38.54.68-.12.16-.28.23-.48.13-.19-.09-.35-.25-.57-.27-1.18,0-2.02,1.1-2.61,2-.27.44-.58.87-.43,1.46.22-.47.36-.97.58-1.44.15-.33.3-.35.64-.24.38.12.74.3,1.15.3,2.53,1.32,5.06,2.66,7.62,3.92.4.2.6.23.7.32s.09.25.09.7c0,.66,0,.96,0,3.97,0,1.22,0,2.43.02,3.65,0,.2-.06.22-.22.13-1.53-.78-3.06-1.54-4.58-2.34-.96-.51-1.93-1.01-2.89-1.5-.14-.07-.23-.08-.34.08-.52.89-1.84,2.16-2.07,3.01,0,.12.02.24-.13.3-.19-.18-.37-.19-.53.05Zm1.18-3.43c.19-.04.39-.02.52-.2.26-.09.58-.29.17-.44-.17-.07-.31-.19-.49-.21-.33-.18-.65-.37-.98-.55-.09-.05-.19-.04-.18.08.02.33-.08.66.06.98.06.29.28.32.52.33.13.2.26.19.4,0Z"/><path class="cls-5" d="m12.53,10.14s.04.01.07,0c-.02-.04-.04-.01-.07,0Zm1.67,4.25c-.06.05-.07.07-.01.15.05-.07.07-.09.01-.15Zm-1.95-2.93c-.22.24-.37.46-.52.71.42-.05.6-.29.52-.71Zm.47,3.38c.24.29.6.05.87.22-.47.16-.9.08-1.27-.32.05,1.07,1.03.87,1.55.32.17-.09.22-.24.23-.48-.44.33-.89.41-1.38.26Zm3.64-2.6c-.12-.11-.58-.01-.73-.05-.34.24-.52.6-.76.91-.05.07-.14.13-.04.22.24.17.61-.41.85-.55.33.1.5-.11.66-.35.05-.09.05-.14.02-.18Zm-1.42-.45c-.11-.17-.16-.4-.38-.49-.38.26-.59.67-.85,1.03-.11.15.01.24.15.28.08.16.23.42.38.24.18-.23.48-.43.47-.78h0c.2.01.32-.14.23-.28Zm1.94,2.26c-.17.07-.35.11-.53.12-.21.05-.43.1-.64.15,0,.03.01.06.01.09h.62c.26-.05.88.04.82-.37-.06-.18-.19-.03-.28.01Zm-1.39-2.83c.2.27.47.36.8.29-.28-.06-.5-.29-.8-.29Zm4.82.05c-.24.07-.47.13-.71.2-.12.09-.26.07-.4.08-.15.13-.36,0-.51.13-.12.16-.22.34-.39.45-.46.48-1,1.22-1.74,1.14-.06-.08.03-.16.08-.22.42-.38.82-1.23,1.33-1.38.03-.14.08-.29.06-.44-1.12.02-2.22-.28-3.18-.86-.14.13-.29.14-.46.07-.04.08-.11.16-.19.23-.23.22-.56.42-.61.6.03.19-.05.31-.25.34-.04.04-.1.01-.1-.02-.01-.35-.14-.72.15-1.02.23-.26.45-.52.67-.77.04-.22-.17-.44-.01-.66-.02-.09-.04-.18-.07-.27-.48.07-.55.59-.89.72-.14.15-.21.37-.46.47.03-.23.2-.36.27-.53-.1-.01-.21.03-.28-.07-.14,0-.19.15-.31.2-.04.22-.23.4-.21.65.39-.06.24.42-.05.46-.2.43-.52.78-.79,1.18-.09.26-.26.46-.52.57-.02.02-.05.05-.07.07-.02.05-.07.06-.13.06-.2.35-.51.62-.7.99-.1.2-.16.41-.19.64,1.84.76,4.13,2.24,5.91,2.93.23-.3.25-.71.55-1,.28-.27.44-.66.82-.83.64-.82,1.27-1.7,1.9-2.54.05-.07.12-.05.18-.05h.13c.25-.28.51-.55.77-.82.01-.06,0-.12.06-.16.02-.15.15-.22.23-.32.05-.07.19-.09.11-.22Z"/><path class="cls-6" d="m19.14,12.79c.26-.27.51-.55.77-.82.11,0,.15-.08.19-.16.13-.07.26-.14.34-.26.12,0,.19-.07.2-.19.12-.03.17-.13.26-.2.27-.13.49-.32.66-.58.02,0,.04,0,.06,0,.1,0,.19,0,.2-.13.13-.18.38-.17.51-.33.29-.1.57-.22.79-.45.04,0,.08,0,.12-.01.09.01.14-.03.14-.12.12,0,.18-.16.32-.13.1,0,.19.01.2-.12.06,0,.12,0,.19-.01.09.01.13-.03.14-.12.04,0,.09,0,.13,0,.17.01.36.09.45-.13.04-.07.09-.13.13-.2.04,0,.08,0,.11,0,.14.02.2-.05.21-.18,0-.02,0-.05,0-.07.09,0,.13-.06.13-.15.07.02.12-.03.18-.06.15.02.22-.08.28-.19h0c.67-.28,1.04.17,1.55.03.31.34.25.85.33,1.28-.11-.02-.22-.04-.33-.05-.55-.12-1.14-.15-1.56.31-.14.04-.28.1-.38.21-.12,0-.18.07-.21.18-.07.07-.17.11-.21.21-.02.01-.04.02-.06.03-.16.1-.33.2-.37.41-.4.33-.61.79-.87,1.22-.23.21-.35.48-.38.79-.63.43-1.27.85-1.83,1.37-.24.21-.4.45-.4.78-.06.05-.05.12-.04.19,0,.26-.01.52-.02.78-.16-.09-.32-.19-.48-.26-.18-.08-.39-.33-.62-.06-1.3.86-2.56,1.83-3.78,2.8-.09.02-.15.06-.19.15-.04,0-.08.01-.13.02-.14-.35-.1-.71-.14-1.07.05-.62.45-1.12.86-1.56.08,0,.12-.05.13-.12.04-.03.08-.05.13-.08.12,0,.19-.07.2-.19.65-.84,1.27-1.77,1.96-2.61.08-.01.12-.05.12-.13Z"/><path class="cls-4" d="m16.61,15.92c-.41.44-.8.93-.86,1.56-.51.88.09,2.33.12,3.33-.17.02-.28-.13-.44-.14-.08-.18-.23-.21-.4-.2-.58-.51-1.36-.57-2-.94-.11-.07-.21-.03-.27.08-.18.23-.24.43-.37.41-.22-.02-.17-.26-.19-.4-.02-.28-.27-.32-.33-.51.06-.36-.24-.4-.45-.52-.42-.24-.85-.46-1.27-.69-.16-.09-.27-.19-.25-.4,0-.11-.04-.23-.06-.34.04-.71-.21-1.38-.2-2.09.04-.38-.2-.21-.37-.19,0-.02,0-.05-.01-.07.11-.07.21-.13.32-.2,1.89.83,3.72,1.91,5.59,2.82.31.16.34.14.41-.22.24-.3.26-.72.55-1,.28-.27.44-.66.83-.83.63-.82,1.27-1.7,1.9-2.54.04-.06.11-.05.18-.05,0,.04,0,.09,0,.13-.69.83-1.32,1.77-1.96,2.61-.13,0-.19.07-.2.19-.04.03-.08.05-.13.08-.09,0-.13.03-.13.12Zm-4.36,3.09c0,.18-.08.34.11.44.24.09.15-.37-.11-.44Z"/><path class="cls-4" d="m10.34,25.49c-.19-.12-.18-.34-.18-.52-.08-.96-.07-1.93-.13-2.87.19.09.38.17.57.26.18.27.5.3.78.39,0,.08.05.13.14.12.09,0,.18.03.25.07,0,.08.05.12.14.12.03.05.08.06.13.06.03.06.08.07.13.07.06.02.13.1.19,0,.5.05.85.51,1.37.52,0,.09-.1.21.06.26.39.32.86.49,1.31.71l.25.07c.17.22.4.33.67.38.15.9.07,1.84.17,2.77.05.31-.1.39-.38.26-1.79-.84-3.5-1.84-5.28-2.7-.07-.03-.13-.09-.2,0Zm4.55.06c-.06,0-.12,0-.18,0-.14-.44-.73.36-.73.58-.04.36.26.4.47.53-.04.28.03.82.45.57.52-.14,0-.71.52-.91.14-.08.29-.17.25-.38,0-.19-.15-.12-.25-.14-.03-.4-.09-.43-.53-.26Z"/><path class="cls-5" d="m25.57,8.35c-.06.03-.11.07-.18.06-.16-.2-.21-.07-.26.08,0,.04,0,.08,0,.13-.03.02-.05.04-.08.07-.04.02-.07.04-.11.05-.04,0-.09.01-.13.02h-.26c-.3-.2-.6-.08-.89.02-.15.06-.26.07-.29-.15-.05-.73-.89-.84-1.41-1.17-.07-.03-.15-.12-.22,0-.3-.24-.51-.59-.93-.65-.08-.1.08-.32-.16-.34,0-.04,0-.08,0-.12.05-.04.06-.09,0-.13-.24-.16-.45-.36-.72-.46-.11-.21-.04-.43-.05-.65,1.21.47,2.28,1.25,3.5,1.69h0c0,.11.09.14.16.18.68.39,1.48.58,2.05,1.12,0,.02,0,.05,0,.07,0,.06-.01.12-.02.18Z"/><path class="cls-4" d="m17.9,8.7c.68-.3,1.38-.52,2.14-.48.13.43.04.87.07,1.31-.11.09.02.17.01.25-.33.21-.73.25-1.1.31-.44.05-.88.34-1.32.23,0-.09,0-.18,0-.28.22-.43-.12-.95.2-1.35Z"/><path class="cls-5" d="m17.71,10.05c0,.09,0,.18,0,.28-.13.08-.27.08-.4,0-.59-.37-1.4-.6-1.87-1.05,0-.48,0-.96,0-1.44.67.12,1.21.48,1.74.88.16.12.31.12.48.04.03.43-.08.87.06,1.29Z"/><path class="cls-5" d="m17.91,7.62c-.61-.04-1.22-.1-1.64-.63.09-.01.12-.05.1-.15-.07-.62.02-1.26-.09-1.88.47.39,1.02.56,1.63.54,0,.71,0,1.41,0,2.12Z"/><path class="cls-3" d="m26.62,12.27c-.41,0-.77-.18-1.15-.3-.34-.11-.49-.08-.64.24-.22.47-.36.97-.58,1.44-.15-.59.16-1.02.43-1.46.59-.9,1.43-1.99,2.61-2-.22.71-.04,1.55-.67,2.08Z"/><path class="cls-1" d="m15.03,20.46c.17,0,.32.03.4.2-.16.13-.1.33-.18.49-.3.58-.73,1.06-1.19,1.52-.16.02-.24.16-.34.26-.19-.03-.33.11-.5.14-.19-.06-.37-.14-.52-.27.11-.35.19-.72.41-1.03.05-.04.09-.08.14-.12.06,0,.12-.01.18-.02.26.03.48-.03.65-.23.3-.23.51-.53.66-.87.1-.02.2-.05.31-.07Z"/><path class="cls-6" d="m19.87,5.11c0,.22-.07.44.05.65.05.17-.07.36.08.52,0,.11,0,.22,0,.33-.03.28-.3.41-.41.64l-.38.19c-.04-.14-.2-.22-.2-.39.03-.64-.07-1.29.07-1.92.06-.05.15-.06.19-.15.2-.05.39-.14.32-.39-.08-.29-.04-.58-.06-.86.12-.36.15-.75.32-1.09.06-.03.06-.13.14-.13.01.51.05,1.02-.15,1.52-.09.24,0,.55.08.82-.03.08-.07.17-.04.26Z"/><path class="cls-4" d="m9.11,17.39c-.39-.09-.72-.32-1.07-.51-.08-.04-.11-.12-.11-.22.03-.69-.02-1.37-.05-2.06.42.06.74.43,1.17.53.08.75.05,1.5.06,2.25Z"/><path class="cls-4" d="m19.52,3.72c.02.29-.02.58.06.86.07.25-.11.34-.32.39-.59-.15-1.2.3-1.82.2,0-.32,0-.65,0-.97.44-.28.96-.35,1.44-.52.2-.07.41.11.63.04Z"/><path class="cls-1" d="m10.34,25.49c.06-.09.13-.04.2,0,1.78.86,3.49,1.86,5.28,2.7.29.13.43.05.38-.26-.1-.93-.02-1.87-.17-2.77.02-.04.05-.08.07-.12.02-.02.04-.05.06-.07.06,0,.12,0,.18,0-.25,1.25.15,2.51-.06,3.76-1.86-.93-3.69-1.91-5.53-2.85-.19-.08-.33-.2-.4-.39Z"/><path class="cls-4" d="m24.8,8.75s.09-.01.13-.02c0,.02,0,.05,0,.07-.04.07-.09.13-.13.2-.16,0-.33-.02-.45.13-.04,0-.09,0-.13,0-.09,0-.13.04-.14.12-.06,0-.12,0-.19.01-.1,0-.19,0-.2.12-.14-.03-.2.13-.32.13-.08,0-.12.04-.14.12-.04,0-.08,0-.12.01-.2.06-.39.13-.59.19.07-.27.57-.37.79-.58.07-.04.13-.08.09-.18-.09-.24-.76-.47-1-.34-.02-.16.03-.38-.26-.32-.04-.36-.19-.68-.41-.97.07-.12.15-.04.22,0,.52.33,1.36.43,1.41,1.17.03.22.13.21.29.15.29-.11.59-.22.89-.02.09.15.18.16.26,0Z"/><path class="cls-5" d="m17.45,4.2c0,.32,0,.65,0,.97-.5-.03-.83-.53-1.36-.52-.04-.02-.08-.04-.11-.06-.27-.3-.28-.67-.28-1.04,0-.18.05-.2.23-.16.58.14,1.05.49,1.53.81Z"/><path class="cls-5" d="m17.9,1.79c.44-.01.85.06,1.18.38.01.3-.05.61.06.91-.32.39-.77.46-1.24.51,0-.6,0-1.2,0-1.79Z"/><path class="cls-5" d="m12.37,23.21c-.07.1-.13.02-.19,0-.01-.08-.03-.16-.13-.07-.05,0-.1-.01-.13-.06,0-.08-.05-.13-.14-.12-.08-.05-.16-.08-.25-.07,0-.08-.05-.13-.14-.12-.08-.02-.17-.05-.25-.07-.07-.28-.31-.29-.53-.32-.19-.09-.38-.17-.57-.26.21-.46.31-.49.7-.19.12.09.31.37.34-.08.01-.26.41-.42.64-.3.21.11.49.13.6.39-.19.17-.41.32-.32.64-.15,0-.27-.12-.47-.09.19.31,1.1.35.85.74Z"/><path class="cls-1" d="m27.39,8.19c-.51.14-.89-.31-1.55-.03,0-.03,0-.07.02-.09.22-.2.17-.31-.09-.44-1.43-.76-3.95-1.9-5.12-2.71.84.12,1.53.58,2.26.95-.01.1.04.16.12.2.6.31,1.19.62,1.79.92.09.05.18.1.24-.04.77.41,1.59.74,2.32,1.23Z"/><path class="cls-4" d="m20.66,4.92c1.16.81,3.69,1.95,5.12,2.71.25.12.31.24.09.43-.02.02-.02.06-.02.09,0,0,0,0,0,0-.08,0-.17,0-.25,0,0-.02,0-.05,0-.07.18-.22-.03-.3-.16-.38-.67-.33-1.31-.77-2.05-.92,0,0,0,0,0,0-.27-.46-.78-.55-1.2-.77-.7-.36-1.41-.72-2.06-1.17.19-.03.38-.03.55.06Z"/><path class="cls-5" d="m14.06,21.4c-.17.2-.39.27-.65.23-.2-.22-.49-.33-.72-.52-.12-.2-.28-.32-.52-.32-.11-.06-.22-.12-.33-.18.39-.51,1,.38,1.27-.28.15-.31.25-.32.54-.06-.06.19-.14.37-.13.58-.14.36.45.25.52.55Z"/><path class="cls-6" d="m20.11,9.53c-.02-.44.06-.88-.07-1.31.16-.11.1-.32.2-.45.09-.33.17-.65.26-.98.08-.1.11-.21.13-.33.24.02.09.23.16.34-.07.87.2,1.38-.26,2.21-.08.23-.05.51-.29.67-.03-.07-.07-.12-.15-.15Z"/><path class="cls-3" d="m22.4,8.75c.24-.13.91.09,1,.34.04.1-.03.14-.09.18-.22.21-.71.31-.79.58-.04.08-.13.1-.2.13-.21-.02-.28.28-.51.21.14-.34.43-.64.32-1.06,0-.06,0-.13.01-.19.13,0,.19-.1.26-.18Z"/><path class="cls-3" d="m11.26,11.95c-.09.26-.26.46-.52.57-.02.02-.05.05-.07.07-.05,0-.1,0-.13.06-.73.41-1.39,1.03-2.1,1.51-.18.14-.1.21.07.25.18.09.3.26.51.26h.02c.04.09.11.13.2.14,0,.02.01.04.01.07-.07.08-.13.17-.2.26-.42-.1-.75-.47-1.17-.53-.04-.24.15-.32.29-.43.77-.58,1.54-1.15,2.31-1.72.31-.1.45-.45.78-.51Z"/><path class="cls-3" d="m17.91,7.62c0-.71,0-1.41,0-2.12.13-.02.26-.04.39-.06.07.71.06,1.43.07,2.15-.15.09-.3.04-.45.03Z"/><path class="cls-3" d="m12.37,23.21c.26-.39-.66-.43-.85-.74.19-.03.32.09.47.09.05.07.12.06.19.06.17.06.34.13.51.19.15.13.33.21.52.27.39.35.97.48,1.38.85.02,0,.03.02.03.04-.36.1-.57-.27-.89-.24-.52-.01-.87-.48-1.37-.52Z"/><path class="cls-4" d="m18.36,7.59c0-.72,0-1.43-.07-2.15.16,0,.28-.19.46-.13-.11.73.04,1.46.06,2.19-.14.11-.3.08-.46.08Z"/><path class="cls-6" d="m9.62,15.07c0,.7.24,1.38.2,2.09-.17,0-.26.12-.39.19-.14-.59-.13-1.3-.13-1.94.01-.2.12-.32.32-.34Z"/><path class="cls-3" d="m20.11,4.86c.65.45,1.36.8,2.06,1.17.42.22.93.31,1.2.77-1.22-.44-2.29-1.21-3.5-1.69-.03-.09,0-.18.04-.26.06,0,.13.01.19.02Z"/><path class="cls-6" d="m22.13,9.13c.11.42-.18.71-.32,1.06-.11.11-.22.21-.33.32-.17.15-.35.29-.52.44-.11.03-.22.06-.33.09-.07-.13-.07-.26-.06-.4.84-.49,1.02-.8,1.56-1.51Z"/><path class="cls-6" d="m17.05,3.48c-.86-.27-.99-1.19-.07-1.52.02.51.04,1.01.07,1.52Z"/><path class="cls-3" d="m17.9,1.79c0,.6,0,1.2,0,1.79-.13.01-.27.05-.39-.02-.04-.49.11-1.35-.06-1.72.14-.11.3-.05.46-.05Z"/><path class="cls-1" d="m9.62,15.07c-.2.02-.31.14-.32.34,0,.64,0,1.34.13,1.94-.1.11-.21.05-.33.05,0-.75.02-1.5-.06-2.25.06-.09.13-.17.19-.26.17-.03.41-.2.37.19Z"/><path class="cls-1" d="m18.82,7.5c-.02-.73-.17-1.47-.06-2.19.15,0,.19-.17.32-.19-.13.64-.04,1.28-.07,1.92,0,.17.16.25.2.39-.12.09-.25.09-.39.07Z"/><path class="cls-5" d="m20.5,6.79c-.09.33-.17.65-.26.98-.2-.19-.31-.51-.65-.53.11-.23.38-.36.41-.64.25-.15.37.02.5.19Z"/><path class="cls-3" d="m14,8.43c-.01.15-.01.29-.02.44-.48.07-.55.59-.89.72-.05-.07-.12-.05-.19-.06-.1-.01-.21.03-.28-.07.27-.4.78-.52,1.05-.91.11-.05.2-.12.33-.12Z"/><path class="cls-4" d="m17.44,1.84c.18.37.02,1.23.06,1.72-.11-.02-.22-.03-.33-.05.02-.06.06-.13.05-.18-.1-.46.03-.95-.11-1.41.09-.09.21-.08.33-.08Z"/><path class="cls-5" d="m15.03,20.46c-.1.02-.2.05-.31.07-.58-.22-1.11-.56-1.97-.93.07-.11.16-.15.27-.08.65.37,1.42.43,2,.94Z"/><path class="cls-3" d="m17.97,11.68c.04-.15.09-.29.07-.45.35.02.69-.11,1.04-.07-.03.16.05.27.13.39-.15.13-.37,0-.52.12-.14,0-.27,0-.41,0-.1,0-.21,0-.31,0Z"/><path class="cls-1" d="m20.57,10.64c0,.14,0,.27.06.4-.06.15-.27.08-.33.23-.23.07-.47.13-.7.2,0-.15,0-.3-.01-.45l.98-.38Z"/><path class="cls-1" d="m16.6,28.81c.44-.12.89-.08,1.34-.02.14.02.16.11.16.24,0,.12-.05.26.06.37-.04.13-.16.12-.26.13-.03-.08-.15-.06-.15-.21.02-.45,0-.45-.44-.44-.24-.04-.49.07-.71-.07Z"/><path class="cls-4" d="m25.07,6.96c-.06.14-.15.09-.24.04-.6-.31-1.19-.62-1.79-.92-.09-.04-.14-.1-.12-.2.73.34,1.46.67,2.15,1.08Z"/><path class="cls-4" d="m15.97,4.59s.08.04.11.06c-.02.07.03.12.07.17-.06.58.09,1.16.06,1.74,0,.23-.1.13-.19.1,0-.17-.01-.34-.02-.51,0-.11,0-.23,0-.34.06-.41-.08-.82-.04-1.23Z"/><path class="cls-3" d="m16.02,6.66c.1.04.18.13.19-.1.02-.58-.12-1.16-.06-1.74.04.05.08.09.13.14.11.62.02,1.26.09,1.88.01.1-.02.14-.1.15-.13-.08-.25-.16-.24-.33Z"/><path class="cls-4" d="m17.31,28.87c.44-.01.46-.01.44.44,0,.15.12.13.15.21-.45.14-.66-.28-.59-.65Z"/><path class="cls-1" d="m17.12,1.92c.14.46.01.94.11,1.41.01.05-.03.12-.05.18-.05.01-.1.04-.13-.03-.02-.51-.04-1.01-.07-1.52.02-.08.08-.05.13-.04Z"/><path class="cls-4" d="m19.59,11.02c0,.15,0,.3.01.45-.12.09-.26.08-.4.08-.08-.12-.16-.24-.13-.39.15-.11.33-.16.52-.14Z"/><path class="cls-3" d="m14.85,10.37c-.13.12-.29.14-.45.07-.03-.1-.06-.21-.09-.31-.01-.14-.03-.28-.04-.42.19.22.39.45.58.67Z"/><path class="cls-3" d="m19.13,3.08c-.11-.3-.05-.6-.06-.91.36.27.38.53.06.91Z"/><path class="cls-3" d="m15.43,7.84c0,.48,0,.96,0,1.44-.28-.26-.07-1.01-.14-1.41,0-.19.06-.17.14-.04Z"/><path class="cls-3" d="m17.71,10.05c-.15-.43-.03-.86-.06-1.29.09,0,.16-.1.26-.06-.31.4.02.92-.2,1.35Z"/><path class="cls-3" d="m11.85,20.61c.11.06.22.12.33.18,0,.06,0,.13,0,.19-.03.01-.07.02-.1.03-.26-.01-.47-.16-.68-.28,0-.02,0-.04,0-.06.15-.02.31-.04.46-.07Z"/><path class="cls-1" d="m27.4,9.41c.11.02.22.04.33.05.02.07.05.13.07.2-.08.25-.61.12-.85.19.02-.14.13-.12.22-.13.18-.02.27-.12.23-.31Z"/><path class="cls-1" d="m12.17,22.62c-.07,0-.14,0-.19-.06-.09-.31.13-.47.32-.64.17.13-.02.24-.03.36,0,.11-.06.22-.1.34Z"/><path class="cls-3" d="m12.69,21.12c.23.19.51.3.72.52-.06,0-.12.01-.18.02-.12-.12-.26-.19-.42-.21-.04-.02-.08-.03-.11-.05-.05-.05-.09-.11-.14-.16l.14-.12Z"/><path class="cls-3" d="m19.98,2.5c-.08,0-.09.1-.14.13-.05-.2-.19-.37-.26-.57.18.11.48.09.4.44Z"/><path class="cls-6" d="m22.4,8.75c-.07.08-.13.18-.26.18-.08-.17,0-.34,0-.51.29-.05.24.16.26.32Z"/><path class="cls-4" d="m14.26,9.71c.01.14.03.28.04.42-.08-.11-.16-.22-.24-.33.03-.22-.17-.43-.01-.65.08.18.07.4.21.56Z"/><path class="cls-5" d="m17.85,1.48c.26-.11.51-.13.76.06-.25-.03-.51-.04-.76-.06Z"/><path class="cls-1" d="m13.54,20.85c-.01-.21.07-.39.13-.58.23.16.19.37-.13.58Z"/><path class="cls-5" d="m12.56,21.24c.05.05.09.11.14.16-.29,0-.48-.14-.63-.38.03-.01.06-.02.1-.03.09.14.26.17.39.25Z"/><path class="cls-4" d="m24.28,24.56c.15-.24.33-.23.53-.05-.16.13-.35.04-.53.05Z"/><path class="cls-5" d="m12.81,21.45c.17.01.3.09.42.21-.05.04-.09.08-.14.12-.08-.12-.25-.17-.29-.33Z"/><path class="cls-1" d="m20.11,9.53c.07.03.12.08.15.15,0,.1-.06.11-.14.1.01-.09-.12-.16-.01-.25Z"/><path class="cls-5" d="m11.39,20.68s0,.04,0,.06c-.11.13-.16-.1,0-.06Z"/><path class="cls-5" d="m15.67,6.34s0,.02-.01.02c0-.01-.02-.02-.02-.03,0,0,.01,0,.02-.01,0,0,0,.01.01.02Z"/><path class="cls-3" d="m12.05,10.77c.01-.16-.07-.32.05-.46.39-.06.24.42-.05.46Z"/><path class="cls-5" d="m14.05,22.68c.46-.46.89-.94,1.19-1.52.08-.16.03-.36.18-.49.16,0,.28.16.44.14.02,0,.05,0,.07,0,.02.16.14.23.26.31-.16.13-.34.26,0,.39.13,0,.25.02.32-.12h0c.27-.08.47.29.71.13.07,0,.15.02.2-.06.02,0,.04,0,.06,0,.23,0,1.13-.16.77-.52.43-.43.9-.82,1.45-1.1.12.63.02,1.27.1,1.9.02.14.15.39-.11.51-.37.07-.7.3-1.1.25-.52-.11-.96-.41-1.42-.65-.51-.28-.51-.29-.86.17-.4.53-.4.53.23.73.16.05.27.08.32-.13.08-.34.28-.48.62-.29.03.17-.16.33-.02.5.05.3.39.28.53.48-.18.3-.45.39-.78.35-.12-.27-.38-.27-.61-.32.11.18.35.18.43.37-.02.07-.08.1-.15.11-.18-.33-1.04-.53-1.41-.78-.45-.22-.45-.22-.73.14-.21-.22-.59-.17-.74-.48Zm4.18-1.16c-.19-.03-.36.05-.53.11-.07.02-.21,0-.16.14.13.32.56-.1.69-.25.01,0,.03,0,.03-.03l-.02.03Zm-2.18,1.37c-.25-.02-.41-.31-.76-.23.23.24.44.41.74.42.17-.03.49.28.47-.06,0-.13-.15-.13-.23-.19-.11-.08-.17-.04-.23.06Z"/><path class="cls-4" d="m19.72,22.24c.26-.12.13-.37.11-.51-.08-.64.02-1.28-.1-1.9.08-.07.17-.21.28-.15.16,1.11.15,2.35.18,3.5.02.1.03.35.17.35.09,0,.09-.08.09-.15,0-.41.02-.83-.02-1.23-.05-.85-.09-1.7-.11-2.55.02-.36.29-.52.6-.35.19.11.16.32.17.48.06,1.35.14,2.7.14,4.04,0,.11,0,.23.1.29.23.14.19.35.11.54-.15.59-.89.62-1.38.43-.01-.07-.06-.12-.13-.13,0-.21,0-.43,0-.64.07-.29.16-.58-.06-.86-.15-.16-.25-.34-.21-.57.25-.11.28-.32.07-.52,0-.02,0-.04-.01-.06Z"/><path class="cls-1" d="m19.72,22.24s0,.04.01.06c-.07.16-.3.17-.34.36-.04.03-.09.05-.13.08-.13.02-.13.12-.11.21-.11.35-.32.64-.48.96-.24.24-.47.48-.71.72-.28.16-.56.31-.84.47-.28.16-.41-.09-.59-.21.13-.37.26-.73.4-1.1.07,0,.13-.04.15-.11.06-.01.12-.03.18-.04.33.04.6-.05.78-.35.25-.23.45-.49.59-.8.4.05.73-.19,1.1-.25Z"/><path class="cls-4" d="m16.21,21.12c-.12-.08-.24-.15-.26-.31.04-.09.07-.18.05-.28-.11-.6,0-1.22-.11-1.82.42.13.76.49,1.22.46.05,0,.09,0,.14,0,0,.09,0,.17-.01.26-.14.51-.04,1.5.01,2.08-.24.16-.44-.21-.71-.13-.03-.18-.21-.18-.33-.26Z"/><path class="cls-2" d="m16.93,23.79c-.13.37-.26.73-.4,1.1-.04,0-.08-.01-.13-.02-.02-.11-.1-.16-.2-.19-.03-.05-.08-.06-.13-.05.04-.22.09-.43.13-.65-.29-.62-1.35-.77-1.33.12-.11-.06-.18-.1-.25-.13,0-.02-.01-.03-.03-.04.04-.15.08-.31.13-.46.1-.09.05-.21.07-.31.28-.37.28-.36.73-.14.38.25,1.24.46,1.41.78Z"/><path class="cls-3" d="m17.25,19.17s-.09,0-.14,0c-.32-.27-.77-.36-1.1-.64.03-.09.1-.13.19-.15.08.05.17.08.27.07.14.21.34.28.59.26,0,.06,0,.11.06.13.16.13.26-.02.36-.09.82-.69,2-1.38,2.71-2.06.26-.08.47-.25.64-.46.1-.04.3-.08.1-.2-.27-.16-.54-.35-.87-.39-.02-.02-.05-.04-.07-.07.23-.27.44-.02.62.06.16.07.32.17.48.26.12.02.22.06.3.16-1.26,1.16-2.77,2.05-4.13,3.11Z"/><path class="cls-5" d="m24.98,10.36s.04-.02.06-.03c.32.15.14.41.15.64-.02.06-.05.12-.07.18-.02,0-.04.01-.06.01-.14,0-.13.1-.13.2-.02.02-.04.04-.06.06-.14,0-.13.1-.13.2-.02.02-.04.04-.06.06-.05,0-.09,0-.14,0-.16-.01-.12.11-.13.2h0c-.12,0-.14.1-.13.19h0c-.29.15-.26.49-.43.71-.13-.03-.26-.06-.38-.1.05-.26.25-.44.27-.7.26-.43.46-.9.87-1.22.2-.07.36-.17.37-.41Z"/><path class="cls-3" d="m21.54,14.15c.56-.52,1.2-.93,1.83-1.37.08.07.25.03.26.19-.55.48-1.17.88-1.75,1.31-.07-.16-.21-.13-.34-.14Z"/><path class="cls-1" d="m24.54,20.8c-.14-.32-.04-.66-.06-.98,0-.12.09-.13.18-.08.33.18.65.36.98.55-.1.18-.33.17-.46.32-.22.07-.43.13-.65.2Z"/><path class="cls-3" d="m25.19,10.96c0-.22.17-.49-.15-.64.04-.1.13-.15.21-.21.13,0,.19-.06.21-.18.1-.11.23-.17.38-.21.18-.02.38-.14.49.07.13.22-.41.34-.41.58-.02.02-.05.05-.07.07-.12.01-.18.07-.19.19-.07.14-.21.18-.31.27-.05.02-.09.04-.14.06Z"/><path class="cls-4" d="m25.91,10.37c0-.24.54-.36.41-.58-.11-.21-.31-.09-.49-.07.43-.45,1.01-.43,1.56-.31.04.19-.05.28-.23.31-.09.01-.2,0-.22.13-.39.08-.67.39-1.04.52Z"/><path class="cls-3" d="m25.19,20.6c.12-.15.35-.14.46-.32.19.02.33.14.49.21.22.09.31.2.03.34-.22.18-.88.13-.98-.23Z"/><path class="cls-4" d="m25.19,20.6c.15.37.48.32.78.33-.13.19-.33.17-.52.2-.33-.03-.82.12-.92-.33.22-.07.43-.13.65-.2Z"/><path class="cls-5" d="m21.54,14.15c.13,0,.27-.02.34.14-.15.23-.31.45-.4.71-.11-.02-.22-.04-.33-.06,0-.33.16-.57.4-.78Z"/><path class="cls-1" d="m17.25,21.51c-.06-.58-.15-1.57-.01-2.08.12.09.07.22.07.33.04.55-.1,1.19.14,1.69-.05.08-.13.06-.2.06Z"/><path class="cls-5" d="m19.26,22.73s.09-.05.13-.08c0,.1.07.15.13.21-.23.38-.46.75-.7,1.13-.06,0-.12-.02-.15-.08.15-.32.37-.62.48-.96.14-.02.12-.12.11-.21Z"/><path class="cls-4" d="m21.38,16.06c-.08-.09-.18-.14-.3-.16,0-.26.01-.52.02-.78.13-.02.21.08.31.13-.07.26.15.54-.04.8Z"/><path class="cls-3" d="m18.67,23.91c.03.06.09.08.15.08-.14.34-.44.51-.72.72-.06,0-.11-.02-.14-.08.24-.24.47-.48.71-.72Z"/><path class="cls-3" d="m18.28,20.92c.36.37-.54.53-.77.52.24-.2.47-.42.77-.52Z"/><path class="cls-3" d="m19.52,22.86c-.06-.06-.13-.11-.13-.21.04-.19.27-.2.34-.36.21.2.18.41-.07.52-.05.01-.09.03-.14.04Z"/><path class="cls-4" d="m17.96,24.63c.03.06.09.07.14.08-.26.32-.59.43-.99.39.28-.15.56-.31.84-.47Z"/><path class="cls-4" d="m23.63,12.98c-.01-.17-.18-.12-.26-.19.03-.31.15-.58.38-.79-.02.25-.22.43-.27.7.13.03.26.06.38.1,0,.02,0,.04.01.06-.07.07-.14.13-.24.13Z"/><path class="cls-3" d="m24.55,11.68s.09,0,.14,0c-.2.37-.35.78-.64,1.09-.06-.29.22-.45.25-.71,0,0,0,0,0,0,.08-.04.12-.11.13-.2,0,0,0,0,0,0,.08-.04.11-.12.13-.2Z"/><path class="cls-2" d="m24.29,12.07c-.03.25-.31.42-.25.71,0,.14-.1.08-.17.07,0-.02,0-.04-.01-.06.17-.22.13-.57.43-.72Z"/><path class="cls-1" d="m19.86,23.39c.22.27.13.56.06.86-.14-.28-.04-.57-.06-.86Z"/><path class="cls-3" d="m21.42,15.26c-.1-.06-.18-.15-.31-.13,0-.07-.02-.14.04-.19.11.02.22.04.33.06-.02.09-.04.18-.06.26Z"/><path class="cls-1" d="m25.06,21.12c.13,0,.26,0,.4,0-.13.18-.27.19-.4,0Z"/><path class="cls-4" d="m16.21,24.68c.1.03.18.08.2.19-.02.03-.05.06-.07.09-.06,0-.12,0-.18,0,.02-.1.03-.19.05-.29Z"/><path class="cls-4" d="m25.19,10.96s.09-.04.14-.06c-.01.13-.03.25-.21.24.02-.06.05-.12.07-.18Z"/><path class="cls-4" d="m25.65,10.63c.01-.12.07-.18.19-.19,0,.13-.06.19-.19.19Z"/><path class="cls-3" d="m24.94,11.35c0-.1,0-.19.13-.2,0,.1-.04.16-.13.2Z"/><path class="cls-3" d="m24.74,11.62c0-.1-.01-.2.13-.2,0,.09-.05.16-.13.2Z"/><path class="cls-1" d="m19.93,24.89c.08.01.12.06.13.13-.1,0-.14-.03-.13-.13Z"/><path class="cls-3" d="m15.56,17.22c-.07.36-.1.38-.41.22-1.87-.92-3.71-1.99-5.59-2.82,0-.12,0-.23.09-.33,1.85.77,4.14,2.24,5.91,2.93Z"/><path class="cls-6" d="m17.97,11.68c.1,0,.21,0,.31,0,0,.15.01.3.02.45-.46.48-1,1.21-1.74,1.14-.07-.08.03-.16.08-.22.41-.38.81-1.23,1.32-1.37Z"/><path class="cls-6" d="m14.06,9.8c.08.11.16.22.24.33.03.1.06.21.09.31-.19.32-.75.59-.8.83-.18.04-.28.15-.25.34-.05.04-.1,0-.1-.03,0-.35-.14-.71.14-1.02.23-.25.45-.51.68-.77Z"/><path class="cls-4" d="m8.51,14.42c-.16-.04-.25-.12-.07-.25.71-.48,1.37-1.1,2.11-1.51-.21.35-.52.62-.7.98-.31.02-.45.16-.48.44-.01.14.12.33-.12.4.09-.11.16-.82-.12-.57-.21.16-.44.3-.61.51Z"/><path class="cls-6" d="m13.86,12.62c-.14-.05-.26-.13-.15-.28.26-.36.47-.78.85-1.04,0,.23,0,.47.01.7-.24.21-.48.41-.71.62Z"/><path class="cls-4" d="m13.87,15.07c-.52.54-1.5.75-1.55-.32.38.4.8.48,1.28.32.09.03.19-.12.27,0Z"/><path class="cls-6" d="m15.68,12.78c-.24.13-.61.71-.84.55-.1-.09-.01-.15.04-.22.24-.31.42-.67.76-.91-.04.2.05.39.05.58Z"/><path class="cls-4" d="m15.68,12.78c0-.19-.09-.38-.05-.58.2.05.95-.15.72.23-.16.24-.33.45-.67.35Z"/><path class="cls-3" d="m13.86,12.62c.24-.21.48-.41.71-.62.02,0,.05,0,.07,0,.02.02.04.04.07.06h0c0,.35-.29.55-.47.78-.15.18-.29-.07-.38-.23Z"/><path class="cls-6" d="m9.24,14.48c.25-.07.11-.27.12-.4.03-.28.17-.42.48-.44-.1.2-.16.42-.2.64-.09.09-.08.21-.09.33-.11.07-.21.13-.32.2-.09-.01-.16-.05-.19-.14,0,0,0,0,0,0,.12-.02.2-.07.2-.2h0Z"/><path class="cls-4" d="m20.31,11.27c.06-.15.27-.09.33-.23.11-.03.22-.06.33-.09-.02.07-.05.14-.07.21-.08.07-.14.17-.26.2-.13,0-.19.07-.2.19-.09.12-.22.19-.34.26-.04,0-.08,0-.13,0,.02-.15.15-.22.23-.32.05-.06.19-.09.11-.21Z"/><path class="cls-1" d="m16.35,14.18c.18-.01.36-.05.53-.12.09-.04.22-.19.28,0,.06.41-.56.32-.82.37,0-.08.01-.16.02-.24Z"/><path class="cls-3" d="m13.87,15.07c-.09-.13-.18.03-.27,0-.28-.17-.63.07-.88-.21.49.14.94.07,1.38-.26,0,.24-.06.39-.23.48Z"/><path class="cls-4" d="m14.65,12.01s-.05,0-.07,0c0-.23,0-.47-.01-.7.21.09.27.32.37.49.09.14-.02.28-.23.27,0,0,0,0,0,0-.02-.02-.04-.04-.07-.06Z"/><path class="cls-6" d="m12.25,11.46c.08.42-.1.66-.52.72.14-.25.3-.48.52-.72Z"/><path class="cls-4" d="m16.35,14.18c0,.08-.01.16-.02.24-.21,0-.41,0-.62,0,0-.03,0-.06,0-.09.21-.05.43-.1.64-.15Z"/><path class="cls-1" d="m15.49,11.22c.3,0,.52.23.8.29-.33.06-.6-.02-.8-.3h0Z"/><path class="cls-1" d="m12.9,9.53c.07,0,.15-.01.2.07-.14.15-.21.37-.46.47.03-.24.2-.36.27-.53Z"/><path class="cls-4" d="m18.3,12.14c0-.15-.01-.3-.02-.45.14,0,.27,0,.41,0-.11.17-.21.34-.39.46Z"/><path class="cls-3" d="m13.35,11.61c-.03-.19.07-.3.25-.34.02.19-.06.31-.25.34Z"/><path class="cls-3" d="m19.97,11.81s.08,0,.13,0c-.04.09-.08.16-.19.16,0-.06,0-.12.06-.16Z"/><path class="cls-3" d="m14.19,14.54c-.06-.07-.05-.09.01-.14.06.06.04.08-.01.14Z"/><path class="cls-1" d="m19.02,12.92s0-.09,0-.13c.04,0,.08,0,.13,0,0,.08-.04.12-.12.13Z"/><path class="cls-4" d="m10.54,12.66c.03-.06.08-.07.13-.07-.03.05-.08.07-.13.07Z"/><path class="cls-1" d="m12.6,10.15s-.05.03-.07,0c.03,0,.05-.04.07,0Z"/><path class="cls-1" d="m15.49,11.22s-.01,0-.02-.01c0,0,.01.01.02.02,0,0,0,0,0,0Z"/><path class="cls-4" d="m10.67,12.59s.05-.04.07-.07c-.02.02-.05.04-.07.07Z"/><path class="cls-4" d="m19.98,15.58s.05.04.07.07c0,.08,0,.16,0,.24-.73.46-1.32,1.2-2.68,2.05-.05,0-.1,0-.14.05-.31.07-.47.39-.78.46-.1.01-.18-.02-.27-.07,1.22-.96,2.48-1.94,3.78-2.8Z"/><path class="cls-1" d="m15.89,18.7c.11.6,0,1.22.11,1.82.02.1-.02.19-.05.28-.02,0-.05,0-.07,0-.03-1-.63-2.45-.12-3.33.04.36,0,.71.14,1.07,0,.05,0,.11,0,.16Z"/><path class="cls-5" d="m15.89,18.7c0-.05,0-.11,0-.16.04,0,.08-.01.13-.02.33.28.78.37,1.1.64-.46.03-.8-.33-1.22-.46Z"/><path class="cls-4" d="m21.49,10.51c.11-.11.22-.21.33-.32.23.07.3-.23.51-.21,0,.04,0,.08,0,.13-.14.17-.39.16-.51.33-.09,0-.16.04-.2.13-.02,0-.04,0-.06,0-.02-.02-.04-.05-.06-.07Z"/><path class="cls-1" d="m21.49,10.51s.04.05.06.07c-.17.25-.38.44-.66.58.02-.07.05-.14.07-.21.17-.15.35-.29.52-.44Z"/><path class="cls-1" d="m22.32,10.11s0-.08,0-.13c.07-.04.16-.06.2-.13.2-.06.39-.13.59-.19-.22.23-.5.35-.79.45Z"/><path class="cls-3" d="m24.98,10.36c0,.24-.17.34-.37.41.04-.21.2-.31.37-.41Z"/><path class="cls-1" d="m24.35,9.14c.12-.15.29-.13.45-.13-.1.22-.29.14-.45.13Z"/><path class="cls-3" d="m25.13,8.49c.05-.15.1-.28.26-.08,0,.09-.04.14-.13.15-.03-.05-.08-.06-.13-.07Z"/><path class="cls-1" d="m25.59,8.17c.08,0,.17,0,.25,0-.06.11-.13.21-.28.19,0-.06.01-.12.02-.18Z"/><path class="cls-1" d="m25.05,8.68s.05-.04.08-.06c.05,0,.09,0,.14,0-.01.13-.08.2-.21.18,0-.04,0-.08,0-.12Z"/><path class="cls-1" d="m20.44,11.55c.01-.12.07-.19.2-.19-.01.12-.07.19-.2.19Z"/><path class="cls-1" d="m16.86,15.72c0-.12.07-.19.2-.19-.01.12-.08.18-.2.19Z"/><path class="cls-4" d="m25.46,9.93c-.01.12-.08.19-.21.18.02-.11.08-.19.21-.18Z"/><path class="cls-1" d="m23.69,9.39c.02-.13.11-.13.2-.12-.01.13-.11.13-.2.12Z"/><path class="cls-1" d="m21.61,10.57c.04-.09.1-.13.2-.13,0,.13-.1.13-.2.13Z"/><path class="cls-1" d="m23.23,9.65c.01-.08.06-.12.14-.12,0,.09-.05.14-.14.12Z"/><path class="cls-1" d="m16.61,15.92c0-.09.04-.13.13-.12,0,.08-.05.12-.13.12Z"/><path class="cls-3" d="m25.05,8.68s0,.08,0,.12c-.04,0-.08,0-.11,0,0-.02,0-.05,0-.07.04-.02.07-.04.11-.05Z"/><path class="cls-1" d="m24.08,9.26c.01-.08.05-.13.14-.12,0,.09-.05.13-.14.12Z"/><path class="cls-4" d="m25.26,8.62s-.09,0-.14,0c0-.04,0-.08,0-.13.05,0,.1.01.13.07,0,.02,0,.05,0,.07Z"/><path class="cls-6" d="m12.25,19.01c.26.07.35.54.11.44-.2-.1-.11-.27-.11-.44Z"/><path class="cls-5" d="m16.21,24.68c-.02.1-.03.19-.05.29-.02.02-.04.05-.06.07-.28,0-.46-.27-.74-.26-.08-.02-.17-.05-.25-.07-.35-.39-.83-.56-1.31-.71-.16-.06-.07-.17-.06-.26.32-.02.53.35.89.24.07.04.15.08.25.13-.03-.89,1.03-.73,1.33-.12-.35-.04-.48.68-.13.65.05-.01.1,0,.13.05Z"/><path class="cls-1" d="m15.43,25.81c.1.02.24-.05.25.14-.66.2-.81.68-.77,1.29-.41.25-.49-.28-.45-.57.22-.19.32-.41.21-.71-.05-.13-.05-.28.05-.4.06,0,.12,0,.18,0,0,.15.08.27.14.39.19.14.29,0,.39-.13h0Z"/><path class="cls-3" d="m14.72,25.56c-.1.12-.09.27-.05.4.11.3,0,.52-.21.71-.21-.13-.51-.17-.47-.53,0-.22.59-1.02.73-.58Z"/><path class="cls-6" d="m14.9,27.24c-.04-.61.1-1.09.77-1.29.04.21-.11.3-.25.38-.51.21,0,.77-.52.91Z"/><path class="cls-3" d="m15.03,25.94c-.06-.12-.15-.24-.14-.39.44-.17.5-.14.53.26,0,0,0,0,0,0-.15-.02-.27.07-.39.13Z"/><path class="cls-3" d="m13.8,23.99c.48.15.96.32,1.31.71-.45-.22-.91-.39-1.31-.71Z"/><path class="cls-3" d="m15.36,24.78c.28,0,.46.27.74.26-.02.04-.05.08-.07.12-.27-.05-.5-.16-.67-.38Z"/><path class="cls-3" d="m10.6,22.36c.22.03.46.04.53.32-.2-.06-.4-.13-.53-.32Z"/><path class="cls-3" d="m12.04,23.13c.1-.09.12-.01.13.07-.06,0-.11-.01-.13-.07Z"/><path class="cls-3" d="m11.39,22.75c.09,0,.13.04.14.12-.09,0-.13-.04-.14-.12Z"/><path class="cls-3" d="m11.78,22.95c.09,0,.13.04.14.12-.08,0-.13-.04-.14-.12Z"/><path class="cls-3" d="m23.37,6.8c.74.15,1.37.59,2.05.92.13.08.34.16.16.38-.56-.55-1.37-.73-2.05-1.12-.08-.04-.16-.07-.16-.18Z"/><path class="cls-3" d="m20.5,6.79c-.12-.17-.25-.34-.5-.19,0-.11,0-.22,0-.33.23-.11.43.01.64.08,0,.04,0,.08,0,.12-.02.12-.06.23-.13.33Z"/><path class="cls-4" d="m20.64,6.35c-.21-.06-.41-.19-.64-.08-.15-.15-.03-.35-.08-.52.27.11.48.31.72.46.06.04.05.09,0,.13Z"/><path class="cls-3" d="m24.8,8.75c-.08.16-.17.15-.26,0,.09,0,.17,0,.26,0Z"/><path class="cls-2" d="m16.28,4.96s-.08-.09-.13-.14c-.04-.05-.09-.1-.07-.17.52,0,.86.49,1.36.52.62.09,1.23-.35,1.82-.2-.03.08-.12.1-.19.15-.14.01-.18.19-.32.19-.18-.06-.29.13-.46.13-.13.02-.26.04-.39.06-.61.02-1.15-.15-1.63-.54Z"/><path class="cls-4" d="m14.72,23.47c-.04.15-.08.31-.13.46-.41-.37-1-.5-1.38-.85.17-.03.31-.17.5-.14.38.1.67.36,1.01.53Z"/><path class="cls-3" d="m14.72,23.47c-.34-.17-.63-.43-1.01-.53.1-.11.18-.24.34-.26.15.31.53.26.74.48-.01.11.03.23-.07.31Z"/><path class="cls-2" d="m12.56,21.24c-.13-.08-.3-.11-.39-.25,0-.06,0-.13,0-.19.24,0,.4.13.52.32-.05.04-.09.08-.14.12Z"/><path class="cls-6" d="m8.51,14.42c.17-.21.4-.34.61-.51.27-.26.2.46.12.57,0,0,0,0,0,0-.12.01-.19.08-.2.2,0,0,0,0,0,0-.22,0-.36-.17-.54-.26Z"/><path class="cls-2" d="m18.62,22.49c-.13.31-.34.57-.59.8-.14-.2-.48-.19-.53-.48.07-.1.2-.17.2-.3,0-.12.03-.28-.19-.19-.34-.18-.54-.05-.62.29-.05.21-.16.18-.32.13-.63-.2-.63-.2-.23-.73.35-.46.34-.45.86-.17.46.25.9.55,1.42.65Z"/><path class="cls-3" d="m16.03,23.07c-.31-.01-.52-.18-.74-.42.34-.08.51.22.76.23,0,.06,0,.13-.01.19Z"/><path class="cls-1" d="m18.22,21.51c-.13.15-.56.57-.69.25-.06-.13.09-.11.16-.14.17-.06.34-.13.53-.11h0Z"/><path class="cls-2" d="m16.03,23.07c0-.06,0-.13.01-.19.05-.1.12-.14.23-.06.08.06.23.06.23.19.01.34-.3.03-.47.06Z"/><path class="cls-3" d="m16.21,21.12c.11.08.3.08.33.26,0,0,0,0,0,0-.13-.01-.24.03-.32.12-.35-.13-.16-.26,0-.39Z"/><path class="cls-3" d="m17.26,23.64c-.06.01-.12.03-.18.04-.09-.19-.33-.19-.43-.37.23.06.49.05.61.32Z"/><path class="cls-1" d="m17.52,22.31c.22-.09.19.07.19.19,0,.14-.13.21-.2.3-.14-.17.04-.33.02-.5Z"/><path class="cls-4" d="m16.21,21.51c.09-.1.19-.14.32-.12-.07.14-.19.13-.32.12Z"/><path class="cls-1" d="m18.23,21.51l.02-.03s-.01.02-.03.03h0Z"/><path class="cls-3" d="m19.26,22.73c.01.1.03.2-.11.21-.01-.1-.02-.19.11-.21Z"/><path class="cls-1" d="m16.08,24.64c-.35.04-.22-.69.13-.65-.04.22-.09.43-.13.65Z"/><path class="cls-6" d="m17.39,17.94c1.37-.86,1.93-1.57,2.68-2.05.02,0,.03.02.05.02.06.36-.06.6-.39.78-.13.07-.33.14-.37.43.25-.18.45-.32.65-.47.09-.07.17-.11.2.04-.7.68-1.89,1.37-2.71,2.06-.1.07-.2.22-.37.09.34-.21.25-.57.27-.9Z"/><path class="cls-4" d="m20.19,16.7c-.04-.16-.11-.12-.2-.04-.19.15-.39.29-.65.47.04-.29.24-.36.37-.43.33-.18.45-.42.39-.78.26.05.48.22.72.32-.17.21-.38.38-.64.46Z"/><path class="cls-6" d="m16.47,18.45c.31-.07.47-.39.78-.46,0,.26.04.52-.19.72-.24.02-.44-.05-.59-.26Z"/><path class="cls-5" d="m20.83,16.24c-.24-.1-.45-.27-.72-.32-.02,0-.04-.01-.05-.02,0-.08,0-.16,0-.24.33.03.6.23.87.39.21.12,0,.16-.1.2Z"/><path class="cls-1" d="m17.06,18.71c.24-.19.2-.46.19-.72.03-.05.08-.06.14-.05-.01.33.08.69-.27.9-.06-.03-.07-.08-.06-.13Z"/><path class="cls-2" d="m24.55,11.68c-.03.08-.06.15-.13.2.02-.08-.03-.21.13-.2Z"/><path class="cls-2" d="m24.42,11.87c-.02.08-.05.16-.13.2,0-.1,0-.19.13-.2Z"/><path class="cls-5" d="m14.65,12.01s.04.04.07.06c-.02-.02-.04-.04-.07-.06Z"/><path class="cls-4" d="m9.04,14.68c.01-.12.08-.19.2-.2,0,.13-.08.18-.2.2Z"/><path class="cls-4" d="m15.03,25.94c.13-.06.24-.15.39-.13-.1.13-.2.27-.39.13Z"/></g><ellipse class="cls-3" cx="35.04" cy="20.8" rx="2.44" ry="4.27"/><path class="cls-6" d="m2.66.02s-.21-.75,13,6.34l-1.07.6L2.66.02Z"/></g></g></svg>