<?xml version="1.0" encoding="UTF-8"?><svg id="Capa_2" xmlns="http://www.w3.org/2000/svg" xmlns:xlink="http://www.w3.org/1999/xlink" viewBox="0 0 38.17 111.23"><defs><style>.cls-1{fill:url(#linear-gradient-2);}.cls-2{fill:url(#Degradado_sin_nombre_39);}.cls-3{fill:#631310;}.cls-4{fill:url(#linear-gradient-6);}.cls-5{fill:#6f370f;}.cls-6{fill:#fcd7b2;}.cls-7{fill:url(#Degradado_sin_nombre_48);}.cls-8{fill:url(#linear-gradient-10);}.cls-9{fill:url(#Degradado_sin_nombre_224);}.cls-10{fill:#676767;}.cls-11{fill:url(#Degradado_sin_nombre_2);}.cls-12{fill:url(#Degradado_sin_nombre_119-2);}.cls-13{fill:url(#linear-gradient-5);}.cls-14{fill:#e4bc97;}.cls-15{fill:#616160;}.cls-16{clip-path:url(#clippath);}.cls-17{fill:none;}.cls-18{fill:url(#linear-gradient-7);}.cls-19{fill:#b1b1b1;}.cls-20{fill:#777574;}.cls-21{fill:url(#Degradado_sin_nombre_119);}.cls-22{fill:#c10d0e;}.cls-23{fill:url(#linear-gradient-9);}.cls-24{fill:url(#linear-gradient-3);}.cls-25{fill:url(#linear-gradient);}.cls-26{fill:url(#linear-gradient-4);}.cls-27{fill:#1d1d1b;}.cls-28{fill:url(#linear-gradient-8);}.cls-29{fill:url(#Degradado_sin_nombre_37);}</style><clipPath id="clippath"><rect class="cls-17" width="38.17" height="38.17"/></clipPath><linearGradient id="Degradado_sin_nombre_119" x1="-1320.4" y1="1149.71" x2="-1320.4" y2="1136.94" gradientTransform="translate(-1126.18 -1221.04) rotate(-90.05)" gradientUnits="userSpaceOnUse"><stop offset=".18" stop-color="#1f2025"/><stop offset=".37" stop-color="#383a41"/><stop offset=".51" stop-color="#525769"/><stop offset=".68" stop-color="#919191"/><stop offset=".77" stop-color="#797879"/><stop offset=".88" stop-color="#3e4049"/><stop offset=".97" stop-color="#24252a"/></linearGradient><linearGradient id="Degradado_sin_nombre_2" x1="-8839.1" y1="667.34" x2="-8839.1" y2="648.92" gradientTransform="translate(-286.48 -3660.9) rotate(-90.11) scale(.42 .45)" gradientUnits="userSpaceOnUse"><stop offset="0" stop-color="#8b4414"/><stop offset="0" stop-color="#8b4414"/><stop offset=".13" stop-color="#b05d22"/><stop offset=".2" stop-color="#be6728"/><stop offset=".4" stop-color="#d0722d"/><stop offset=".45" stop-color="#d5752f"/><stop offset=".59" stop-color="#de8e4b"/><stop offset=".66" stop-color="#e59e5d"/><stop offset=".76" stop-color="#e7cea3"/><stop offset=".8" stop-color="#debc8e"/><stop offset=".88" stop-color="#c88e59"/><stop offset=".95" stop-color="#b05d20"/></linearGradient><linearGradient id="Degradado_sin_nombre_37" x1="-3734.33" y1="1148.23" x2="-3734.33" y2="1138.68" gradientTransform="translate(-1127.23 -2418.8) rotate(-90.05) scale(.66 1)" gradientUnits="userSpaceOnUse"><stop offset="0" stop-color="#6a6a6a"/><stop offset=".02" stop-color="#717171"/><stop offset=".1" stop-color="#909091"/><stop offset=".19" stop-color="#a9a9a9"/><stop offset=".29" stop-color="#bababb"/><stop offset=".39" stop-color="#c4c4c5"/><stop offset=".51" stop-color="#c8c8c9"/><stop offset=".73" stop-color="#c6c6c7"/><stop offset=".81" stop-color="#bfbfc0"/><stop offset=".87" stop-color="#b3b3b4"/><stop offset=".92" stop-color="#a2a2a3"/><stop offset=".96" stop-color="#8c8c8d"/><stop offset=".99" stop-color="#727273"/><stop offset=".99" stop-color="#727273"/></linearGradient><linearGradient id="Degradado_sin_nombre_119-2" x1="-682.7" y1="1147.32" x2="-682.7" y2="1140.81" gradientTransform="translate(-1124.51 -769.63) rotate(-90.05) scale(1.16 1)" xlink:href="#Degradado_sin_nombre_119"/><linearGradient id="linear-gradient" x1="-1236.62" y1="1144.3" x2="-1236.62" y2="1142.66" gradientTransform="translate(-1126.18 -1221.04) rotate(-90.05)" gradientUnits="userSpaceOnUse"><stop offset="0" stop-color="#8b4414"/><stop offset=".34" stop-color="#cc6e29"/><stop offset=".35" stop-color="#c96c28"/><stop offset=".37" stop-color="#ad5b20"/><stop offset=".39" stop-color="#984d19"/><stop offset=".41" stop-color="#894415"/><stop offset=".44" stop-color="#803e12"/><stop offset=".48" stop-color="#7e3d12"/><stop offset=".51" stop-color="#824013"/><stop offset=".54" stop-color="#8f4917"/><stop offset=".56" stop-color="#a5591e"/><stop offset=".59" stop-color="#c37027"/><stop offset=".62" stop-color="#ea8c33"/><stop offset=".63" stop-color="#f39336"/><stop offset=".71" stop-color="#d5752f"/><stop offset=".71" stop-color="#d57631"/><stop offset=".72" stop-color="#df955f"/><stop offset=".73" stop-color="#e7b088"/><stop offset=".74" stop-color="#eec7ab"/><stop offset=".76" stop-color="#f4dac7"/><stop offset=".77" stop-color="#f9e8dd"/><stop offset=".79" stop-color="#fcf3ed"/><stop offset=".8" stop-color="#fef9f6"/><stop offset=".83" stop-color="#fffbf9"/><stop offset=".85" stop-color="#fffaf7"/><stop offset=".86" stop-color="#fff7f0"/><stop offset=".87" stop-color="#fff3e4"/><stop offset=".88" stop-color="#ffedd3"/><stop offset=".88" stop-color="#ffe5bd"/><stop offset=".88" stop-color="#ffe2b3"/><stop offset=".91" stop-color="#e8bc89"/><stop offset=".94" stop-color="#d0935b"/><stop offset=".96" stop-color="#be753b"/><stop offset=".99" stop-color="#b36327"/><stop offset="1" stop-color="#b05d20"/></linearGradient><linearGradient id="linear-gradient-2" x1="-1237.12" y1="1145.62" x2="-1237.12" y2="1143.98" xlink:href="#linear-gradient"/><linearGradient id="linear-gradient-3" x1="-1238.1" y1="1142.81" x2="-1238.1" y2="1141.19" xlink:href="#linear-gradient"/><linearGradient id="linear-gradient-4" x1="-1237.46" y1="1144.32" x2="-1237.46" y2="1142.68" xlink:href="#linear-gradient"/><linearGradient id="linear-gradient-5" x1="-1238.41" y1="1145.8" x2="-1238.41" y2="1144.08" xlink:href="#linear-gradient"/><linearGradient id="linear-gradient-6" x1="-1238.38" y1="1143" x2="-1238.38" y2="1141.26" xlink:href="#linear-gradient"/><linearGradient id="linear-gradient-7" x1="-1238.45" y1="1144.46" x2="-1238.45" y2="1142.82" xlink:href="#linear-gradient"/><linearGradient id="linear-gradient-8" x1="-1238.99" y1="1143.1" x2="-1238.99" y2="1141.46" xlink:href="#linear-gradient"/><linearGradient id="linear-gradient-9" x1="-1239.22" y1="1145.45" x2="-1239.22" y2="1143.78" xlink:href="#linear-gradient"/><linearGradient id="linear-gradient-10" x1="-1239.39" y1="1144.08" x2="-1239.39" y2="1142.39" xlink:href="#linear-gradient"/><linearGradient id="Degradado_sin_nombre_39" x1="5399.39" y1="5414.35" x2="5399.39" y2="5405.49" gradientTransform="translate(-5203.21 -5562.78) rotate(1.85)" gradientUnits="userSpaceOnUse"><stop offset=".04" stop-color="#838384"/><stop offset=".52" stop-color="#767677"/><stop offset=".97" stop-color="#727273"/></linearGradient><linearGradient id="Degradado_sin_nombre_224" x1="1276.87" y1="3435.1" x2="1282.49" y2="3435.1" gradientTransform="translate(11960.43 -1273.84) rotate(89.96) scale(1 3.48)" gradientUnits="userSpaceOnUse"><stop offset=".13" stop-color="#696969"/><stop offset=".45" stop-color="#6a6a6a"/><stop offset=".56" stop-color="#717171"/><stop offset=".64" stop-color="#7d7d7d"/><stop offset=".71" stop-color="#8e8e8d"/><stop offset=".77" stop-color="#a3a3a2"/><stop offset=".77" stop-color="#a5a5a4"/><stop offset=".8" stop-color="#a7a6a5"/><stop offset=".81" stop-color="#aeadac"/><stop offset=".83" stop-color="#bab9b8"/><stop offset=".83" stop-color="#bdbcbb"/><stop offset=".84" stop-color="#afaead"/><stop offset=".86" stop-color="#90908f"/><stop offset=".88" stop-color="#7a7a7a"/><stop offset=".9" stop-color="#6d6d6d"/><stop offset=".92" stop-color="#696969"/></linearGradient><linearGradient id="Degradado_sin_nombre_48" x1="102.95" y1="199.63" x2="112.31" y2="199.63" gradientTransform="translate(-181.28 151.87) rotate(-90)" gradientUnits="userSpaceOnUse"><stop offset="0" stop-color="#2c2d2b" stop-opacity="0"/><stop offset="0" stop-color="#3f2926" stop-opacity=".13"/><stop offset="0" stop-color="#721f1c" stop-opacity=".48"/><stop offset="0" stop-color="#931915" stop-opacity=".7"/></linearGradient></defs><g id="Capa_1-2"><g class="cls-16"><g><g><path class="cls-21" d="m11.96,107.95s0,0,0,.01c0,0,0,.01,0,.02,0,1.8,2.85,3.25,6.37,3.25,3.52,0,6.36-1.46,6.36-3.26,0,0,0-.01,0-.02,0,0,0,0,0-.01l-.05-22.47h-12.73s.05,22.48.05,22.48Z"/><ellipse class="cls-10" cx="18.27" cy="85.66" rx="6.36" ry="3.26"/></g><path class="cls-11" d="m23.38,84.81v-4.44s-2.27,1.5-5.25,1.45c-2.72-.05-4.98-1.33-4.99-1.34,0,0,.03,4.79.03,4.79-.01,1.04,2.25,2.4,5.08,2.49s5.09-1.49,5.11-2.53c0,0,.03-.55.03-.43Z"/><path class="cls-5" d="m13.15,82.04c2.93,2.21,6.89,1.9,10.24.97-3.2,1.33-7.49,1.28-10.24-.97h0Z"/><path class="cls-5" d="m13.19,83.6c1.76,2.87,6.07,2.17,8.83,1.37.43-.13.9-.35,1.32-.42-.42.19-.85.37-1.28.54-2.56.91-5.7,1.23-8.03-.42-.33-.27-.8-.65-.84-1.07h0Z"/><path class="cls-29" d="m23.05,21.95h-9.47s.09,29.52.09,29.52c.96.08,2.29.19,4.7.19,2.41,0,2.67-.07,4.79-.22l-.11-29.49Z"/><path class="cls-19" d="m23.03,21.92c0,1.25-2.08,2.27-4.64,2.27-2.56,0-4.83-1.02-4.83-2.27,0-1.25,2.26-2.27,4.82-2.27,2.56,0,4.64,1.02,4.65,2.27Z"/><g><path class="cls-3" d="m11.92,91.56c3.83,2.55,8.78,2.21,12.68,0-.46.32-.93.65-1.42.94-3.47,2.03-8.25,1.83-11.26-.94h0Z"/><path class="cls-3" d="m11.92,95.32c3.83,2.55,8.78,2.21,12.68,0-.46.32-.93.65-1.42.94-3.47,2.03-8.25,1.83-11.26-.94h0Z"/><path class="cls-3" d="m11.92,98.74c3.83,2.55,8.78,2.21,12.68,0-.46.32-.93.65-1.42.94-3.47,2.03-8.25,1.83-11.26-.94h0Z"/><path class="cls-3" d="m11.92,102.16c3.83,2.55,8.78,2.21,12.68,0-.46.32-.93.65-1.42.94-3.47,2.03-8.25,1.83-11.26-.94h0Z"/></g><g><path class="cls-19" d="m23.03,21.84c0,1.25-2.08,2.27-4.64,2.27-2.56,0-4.83-1.02-4.83-2.27,0-1.25,2.26-2.27,4.82-2.27,2.56,0,4.64,1.02,4.65,2.27Z"/><g><g><path class="cls-12" d="m15.14,21.94s0,0,0,0c0,0,0,0,0,0,0,.53,1.45,1.1,3.25,1.1,1.79,0,3.24-.57,3.24-1.11,0,0,0,0,0,0,0,0,0,0,0,0v-1.01s-6.5,0-6.5,0v1.01Z"/><ellipse class="cls-20" cx="18.37" cy="20.92" rx="3.25" ry="1.22" transform="translate(-.04 .03) rotate(-.1)"/><ellipse class="cls-15" cx="18.37" cy="20.94" rx="3.05" ry=".94" transform="translate(-.03 .03) rotate(-.09)"/></g><g><g><path class="cls-25" d="m17.56,10.09h1.63s.02,8.97.02,8.97c-.11,0-.22,0-.34,0-.09,0-.19,0-.29,0-.09,0-.18,0-.27,0,0,0-.02,0-.02,0-.25,0-.49-.01-.71-.02l-.02-8.95Z"/><g><path class="cls-6" d="m18.38,9.67c-.32,0-.59.09-.73.22v-.06s-.04,0-.04,0l-.04.19h0s0,.03,0,.04c0,.22.37.4.81.41s.81-.18.81-.4c0-.01,0-.03,0-.04h0s-.04-.19-.04-.19h-.04s0,.05,0,.05c-.13-.13-.41-.22-.73-.22Z"/><ellipse class="cls-14" cx="18.38" cy="9.87" rx=".34" ry=".77" transform="translate(8.4 28.19) rotate(-89.66)"/></g></g><g><path class="cls-1" d="m18.87,10.5h1.63s.02,8.87.02,8.87c-.21.01-.52.29-.79.3-.11,0-.16-.6-.28-.6-.09,0-.19,0-.29,0-.09,0-.18,0-.27,0l-.02-8.56Z"/><g><path class="cls-6" d="m19.69,10.08c-.32,0-.59.09-.73.22v-.06s-.04,0-.04,0l-.04.19h0s0,.03,0,.04c0,.22.37.4.81.41s.81-.18.81-.4c0-.01,0-.03,0-.04h0s-.04-.19-.04-.19h-.04s0,.05,0,.05c-.13-.13-.41-.22-.73-.22Z"/><ellipse class="cls-14" cx="19.69" cy="10.28" rx=".34" ry=".77" transform="translate(9.3 29.9) rotate(-89.66)"/></g></g><g><path class="cls-24" d="m16.11,20.81l-.02-10.33h1.63s-.02,11.15-.02,11.15c-.25,0-.65-.1-.85-.25-.45-.32-.6-.36-.74-.5v-2.39"/><g><path class="cls-6" d="m16.9,10.02c-.32,0-.59.09-.73.22v-.06s-.04,0-.04,0l-.04.19h0s0,.03,0,.04c0,.22.37.4.81.41s.81-.18.81-.4c0-.01,0-.03,0-.04h0s-.04-.19-.04-.19h-.04s0,.05,0,.05c-.13-.13-.41-.22-.73-.22Z"/><ellipse class="cls-14" cx="16.9" cy="10.21" rx=".34" ry=".77" transform="translate(6.59 27.05) rotate(-89.66)"/></g></g><g><path class="cls-26" d="m17.58,10.97h1.63s.02,8.9.02,8.9c-.11,0-.22,0-.34,0-.09,0-.19,0-.29,0-.09,0-.18,0-.27,0,0,0-.02,0-.02,0-.25,0-.49-.01-.71-.02l-.02-8.88Z"/><g><path class="cls-6" d="m18.39,10.58c-.32,0-.59.09-.73.22v-.06s-.04,0-.04,0l-.04.19h0s0,.03,0,.04c0,.22.37.4.81.41s.81-.18.81-.4c0-.01,0-.03,0-.04h0s-.04-.19-.04-.19h-.04s0,.05,0,.05c-.13-.13-.41-.22-.73-.22Z"/><ellipse class="cls-14" cx="18.39" cy="10.78" rx=".34" ry=".77" transform="translate(7.5 29.11) rotate(-89.66)"/></g></g><g><path class="cls-13" d="m18.98,11.42h1.63s.1,9.53.1,9.53c-.11.09-.29.35-.56.37-.21.01-.6-1.12-.87-1.11-.11,0-.16-.6-.28-.6l-.02-8.18Z"/><g><path class="cls-6" d="m19.79,11.03c-.32,0-.59.09-.73.22v-.06s-.04,0-.04,0l-.04.19h0s0,.03,0,.04c0,.22.37.4.81.41s.81-.18.81-.4c0-.01,0-.03,0-.04h0s-.04-.19-.04-.19h-.04s0,.05,0,.05c-.13-.13-.41-.22-.73-.22Z"/><ellipse class="cls-14" cx="19.79" cy="11.22" rx=".34" ry=".77" transform="translate(8.45 30.95) rotate(-89.66)"/></g></g><g><path class="cls-4" d="m16.2,11.21h1.63s.08,9.06.08,9.06c-.25,0-.57,1.2-.78,1.19-.45-.02-.86-.46-.95-.51l.03-9.73Z"/><g><path class="cls-6" d="m17.02,10.82c-.32,0-.59.09-.73.22v-.06s-.04,0-.04,0l-.04.19h0s0,.03,0,.04c0,.22.37.4.81.41s.81-.18.81-.4c0-.01,0-.03,0-.04h0s-.04-.19-.04-.19h-.04s0,.05,0,.05c-.13-.13-.41-.22-.73-.22Z"/><ellipse class="cls-14" cx="17.02" cy="11.02" rx=".34" ry=".77" transform="translate(5.9 27.97) rotate(-89.66)"/></g></g><g><path class="cls-18" d="m17.72,11.86h1.63s.02,8.95.02,8.95c-.21.01-.45.13-.73.14-.11,0-.22,0-.34,0-.09,0-.17,0-.27,0-.09,0-.17,0-.25,0l-.05-9.09Z"/><g><path class="cls-6" d="m18.53,11.5c-.32,0-.59.09-.73.22v-.06s-.04,0-.04,0l-.04.19h0s0,.03,0,.04c0,.22.37.4.81.41s.81-.18.81-.4c0-.01,0-.03,0-.04h0s-.04-.19-.04-.19h-.04s0,.05,0,.05c-.13-.13-.41-.22-.73-.22Z"/><ellipse class="cls-14" cx="18.53" cy="11.7" rx=".34" ry=".77" transform="translate(6.72 30.16) rotate(-89.66)"/></g></g><g><path class="cls-28" d="m17.06,21.5c-.25-.12-.47-.22-.68-.39l-.02-8.86h1.63s.02,9,.02,9c-.11,0-.22.37-.34.38-.09,0-.13,0-.23,0"/><g><path class="cls-6" d="m17.17,11.86c-.32,0-.59.08-.73.21v-.05s-.04,0-.04,0l-.04.18h0s0,.03,0,.04c0,.21.37.39.81.39s.81-.17.81-.38c0-.01,0-.03,0-.04h0s-.04-.18-.04-.18h-.04s0,.05,0,.05c-.13-.13-.41-.21-.73-.21Z"/><ellipse class="cls-14" cx="17.17" cy="12.05" rx=".32" ry=".77" transform="translate(5.03 29.15) rotate(-89.67)"/></g></g><g><path class="cls-23" d="m18.7,12.59h1.63s.03,8.62.03,8.62c-.14.11-.28.18-.56.29-.2.08-.48.22-.75.22-.11,0-.24.03-.36.03v-9.17Z"/><g><path class="cls-6" d="m19.51,12.18c-.32,0-.59.09-.73.22v-.06s-.04,0-.04,0l-.04.19h0s0,.03,0,.04c0,.22.37.4.81.41.45,0,.81-.18.81-.4,0-.01,0-.03,0-.04h0s-.04-.19-.04-.19h-.04s0,.05,0,.05c-.13-.13-.41-.22-.73-.22Z"/><ellipse class="cls-14" cx="19.51" cy="12.38" rx=".34" ry=".77" transform="translate(7.02 31.82) rotate(-89.66)"/></g></g><g><path class="cls-8" d="m17.3,12.92h1.63s.06,8.81.06,8.81c-.1,0-.37.05-.64.05-.21,0-.41-.04-.68-.08-.11-.02-.22-.08-.34-.1l-.03-8.67Z"/><g><path class="cls-6" d="m18.11,12.51c-.32,0-.59.09-.73.22v-.06s-.04,0-.04,0l-.04.19h0s0,.03,0,.04c0,.22.37.4.81.41s.81-.18.81-.4c0-.01,0-.03,0-.04h0s-.04-.19-.04-.19h-.04s0,.05,0,.05c-.13-.13-.41-.22-.73-.22Z"/><ellipse class="cls-14" cx="18.11" cy="12.71" rx=".34" ry=".77" transform="translate(5.29 30.74) rotate(-89.66)"/></g></g></g></g></g><path class="cls-2" d="m21.85,14.69l-6.92-.1s0,.46-.02,1.14c.12.26.23.52.32.79.09.27.17.54.23.81.16.98.16,1.66-.18,2.55-.11.29-.26.58-.44.88-.04.68-.05,1.14-.05,1.14.13,1.05,1.74,1.5,3.48,1.54,1.78.04,2.92-.23,3.44-1.27v-.69c-.62-1.8-.62-2.82.04-4.58.04-.26.07-.52.08-.77,0-.28.01-.54.01-.75v-.69Zm-5.98,7.82l-.94-.65s.02-.45.04-.9c.08-.43.31-.83.31-.83l.69.59s-.04.44-.06.89l-.04.9Zm.35-2.35c-.6-.82.09-1.85-.25-2.53,1.02.34,1.37.68.76,1.78-.24.38-.5.75-.5.75Zm.79-2.18c-.36-.35-.7-.69-1.13-.61-.22-.09-.42-.21-.55-.39s-.18-.43-.11-.79c-.03-.47-.02-.91-.02-.91l.94.65c.08.34.21.6.34.86s.28.52.38.87c.09.2.14.33.14.33Zm2.83-1.66c-.06.31,0,.64-.05.97-.06,1.02-.75,1.36-1.43,1.36-1.02,0-1.37-1.02-1.41-1.67.04-.3.21-.56.38-.73.68-.34,1.37,0,2.06.05.27,0,.44,0,.44,0Zm-2.21,2.58c.73.09,1.07.09,1.76.09.68.34.34.68,0,1.02-.68.34-1.71,1.02-2.1-.33.19-.38.34-.79.34-.79Zm-.79,3.99l.02-.9c0-.45.02-.9.02-.9.23-.02.52-.03.78-.03.71-.02,1.39-.02,2.07.09,0,0,0,.45-.01.9l-.02.9-2.85-.06Zm4.78-7.4s0,.45-.04.9c.2.89-.82,1.24-1.51,1.58,0-.34,0-.68.47-.98.09-.45.12-.9.12-.9l.95-.59Zm-1.44,3.03q.24-.21.58-.56c0,.68.34,1.71-.34,2.39,0-.34-.34-.68-.29-.97,0-.43.05-.86.05-.86Zm.35,4.13l.02-.89c-.13-.72-.13-1.4.55-1.4,0,0,.34.34.39.82,0,.45-.01.9-.01.9l-.95.59Z"/><path class="cls-19" d="m21.85,14.73c-.03.69-1.61,1.2-3.47,1.14-1.86-.06-3.48-.68-3.45-1.37s1.69-1.19,3.55-1.13,3.4.67,3.37,1.36Z"/><g><path class="cls-10" d="m18.54,4.89c-1.55-.02-2.83,1.28-2.85,2.9v.03s-.05,4.18-.05,4.18l5.62.08.05-4.17v-.04c.02-1.62-1.22-2.95-2.77-2.97Zm-.06,4.49c-.77-.01-1.39-.71-1.38-1.55s.65-1.53,1.42-1.51,1.39.71,1.38,1.55-.65,1.53-1.42,1.51Z"/><ellipse class="cls-9" cx="18.4" cy="14.48" rx=".87" ry="2.81" transform="translate(3.67 32.68) rotate(-89.2)"/><polygon class="cls-10" points="15.64 11.89 15.61 14.47 21.23 14.55 21.26 11.97 15.64 11.89"/></g><path class="cls-3" d="m13.4,24.19c3.25.66,6.58.55,9.84,0-3.18.88-6.67.99-9.84,0h0Z"/><path class="cls-3" d="m13.61,21.73c3.07.66,6.23.55,9.31,0-3,.88-6.32.99-9.31,0h0Z"/><path class="cls-3" d="m14.85,19.88c2.3.5,4.65.41,6.96,0-2.22.74-4.75.83-6.96,0h0Z"/><path class="cls-3" d="m14.79,17.88c2.28.65,4.67.55,6.96,0-2.19.88-4.79.99-6.96,0h0Z"/><path class="cls-3" d="m14.86,14.99c2.32.34,4.64.28,6.96,0-2.25.62-4.72.68-6.96,0h0Z"/><path class="cls-3" d="m21.78,16.41c-2.19.88-4.79.99-6.96,0,2.28.65,4.67.55,6.96,0h0Z"/><path class="cls-27" d="m15.17,12.65c-.09.19-.66,1.41-.63,3.06,0,.49,0,.97-.03,1.45-.05.54-.11,1.25-.16,1.81-.04.52-.28.99-.61,1.39-1.34,1.58-.6,4.31-.26,5.3.09.27.14.55.14.84v6.7s.05,17.3.05,17.3c0,0-.15,11.39-.15,12.79,0,.06,0,.12,0,.18h0c.05.75-.23,1.47-.74,2.02-1.37,1.49-.74,2.94-.19,3.72.32.45.51.99.52,1.54,0,.76.01,1.69.01,1.69,0,0,0,7.05-.01,11.03h-.02l-.59.68c-.3.35-.52.76-.6,1.21s-.07.9-.07,1.37v20.02h0c4.21.89,8.56.9,12.77.04l.18-.04v-20.02c0-.78.11-2.68-.86-3.33h0c0-3.83-.01-10.97-.01-10.97,0,0,0-.94.01-1.69,0-.56.19-1.09.52-1.54.55-.78,1.18-2.23-.19-3.72-.51-.55-.79-1.27-.74-2.02h0c0-.06,0-.12,0-.18,0-1.4-.15-12.79-.15-12.79l.04-17.3v-6.7c.01-.29.06-.57.15-.84.34-.99,1.07-3.72-.26-5.3-.34-.4-.57-.87-.61-1.39l-.16-1.8c-.04-.48-.04-.97-.03-1.46.03-1.65-.54-2.87-.63-3.06,0-.02-.02-.02-.04-.02l-3.3.04-3.29-.04s-.04,0-.04.02Z"/><g><path class="cls-22" d="m13.64,44.75v1.61c-1.44.3-6.71,1.41-8.08,2.2l7.26.3c3.16.13,8.34.07,11.49-.14l6.83-.46c-1.48-.8-6.81-1.78-7.73-1.94l-.02-1.57h-9.75Z"/><path class="cls-7" d="m13.61,44.75v1.62c-1.49.31-6.69,1.41-8.04,2.19l7.26.3c3.16.13,8.34.07,11.49-.14l6.83-.46c-1.46-.79-6.72-1.76-7.75-1.95v-1.56h-9.79Z"/></g></g></g></g></svg>