<?xml version="1.0" encoding="UTF-8"?><svg id="Capa_2" xmlns="http://www.w3.org/2000/svg" viewBox="0 0 35.22 27.6"><defs><style>.cls-1{stroke:#3c3c3b;stroke-miterlimit:10;stroke-width:.75px;}.cls-1,.cls-2{fill-rule:evenodd;}.cls-1,.cls-3{fill:none;}.cls-2,.cls-4{fill:#676767;}.cls-5{fill:#3c3c3b;}.cls-6{fill:#1d1d1b;}</style></defs><g id="Capa_1-2"><g><path class="cls-5" d="m34.38,11.07c1.37-1.58.98-4.21-.59-7.03-1.78-3.2-4.86-4.81-6.93-3.68l-.03-.04L1.6,15.33l7.04,11.23,23.85-14.07c.29-.07.59-.46.85-.61.27-.16.74-.55.95-.78l.09-.02h0Z"/><ellipse class="cls-4" cx="4.86" cy="21.21" rx="4.36" ry="6.74" transform="translate(-8.41 3.97) rotate(-24.68)"/><ellipse class="cls-6" cx="4.86" cy="21.21" rx="3.65" ry="5.65" transform="translate(-8.41 3.97) rotate(-24.68)"/><ellipse class="cls-5" cx="4.86" cy="21.21" rx="3.65" ry="5.65" transform="translate(-8.41 3.97) rotate(-24.68)"/><polygon class="cls-3" points="14.88 11.45 16.85 10.18 19.45 14.61 17.49 15.88 14.88 11.45"/><path class="cls-2" d="m8.47,11.69s1.7.49,3.74,3.39c2.37,3.37,2.13,6.83,2.13,6.83l1.91-1.19s0-3.3-1.93-6.22c-1.24-1.86-4.02-3.94-4.02-3.94l-1.82,1.13Z"/><path class="cls-2" d="m12.08,9.76s1.7.49,3.74,3.39c2.37,3.37,2.13,6.83,2.13,6.83l1.91-1.19s0-3.3-1.93-6.22c-1.24-1.86-4.02-3.94-4.02-3.94l-1.82,1.13Z"/><path class="cls-2" d="m15.6,7.59s1.7.49,3.74,3.39c2.37,3.37,2.13,6.83,2.13,6.83l1.91-1.19s0-3.3-1.93-6.22c-1.24-1.86-4.02-3.94-4.02-3.94l-1.82,1.13Z"/><path class="cls-2" d="m19.27,5.47s1.7.49,3.74,3.39c2.37,3.37,2.13,6.83,2.13,6.83l1.91-1.19s0-3.3-1.93-6.22c-1.24-1.86-4.02-3.94-4.02-3.94l-1.82,1.13Z"/><path class="cls-2" d="m22.65,3.46s1.7.49,3.74,3.39c2.37,3.37,2.13,6.83,2.13,6.83l1.91-1.19s0-3.3-1.93-6.22c-1.24-1.86-4.02-3.94-4.02-3.94l-1.82,1.13Z"/><path class="cls-1" d="m7.57,15.46s8.57-4.2,21.67-12.71"/><path class="cls-1" d="m10.94,20.64s12.95-7.61,21.67-12.71"/></g></g></svg>