<?xml version="1.0" encoding="UTF-8"?><svg id="Capa_2" xmlns="http://www.w3.org/2000/svg" viewBox="0 0 38.25 38.07"><defs><style>.cls-1{fill:none;}.cls-1,.cls-2{stroke:#1d1d1b;}.cls-1,.cls-2,.cls-3{stroke-miterlimit:10;}.cls-4{fill:#3c3c3b;}.cls-2,.cls-5{fill:#1d1d1b;}.cls-3{fill:#ce9163;stroke:#7a573a;stroke-width:.25px;}</style></defs><g id="Capa_1-2"><g><ellipse class="cls-2" cx="19.13" cy="19.04" rx="18.63" ry="18.54"/><ellipse class="cls-4" cx="19.13" cy="19.04" rx="17.47" ry="17.39" transform="translate(-.8 .84) rotate(-2.46)"/><ellipse class="cls-1" cx="19.13" cy="19.04" rx="18.63" ry="18.54"/><g><path class="cls-5" d="m15.36,6.68c4.03,2.71,3.66,12.36,3.66,12.36,0,0-9.5,5.04-13.54,2.32-4.03-2.71-3.43-7.58-.7-11.63,2.73-4.05,6.54-5.76,10.57-3.05Z"/><path class="cls-3" d="m15.03,7.16c3.77,2.54,3.51,11.56,3.51,11.56,0,0-8.97,4.7-12.74,2.16-3.77-2.54-3.09-7.04-.55-10.83,2.55-3.79,6-5.42,9.77-2.89Z"/></g><g><path class="cls-5" d="m32.14,19.68c-3.77,3.07-12.45-.55-12.45-.55,0,0-2.49-10.1,1.28-13.17s8.63-1.37,11.72,2.42,3.22,8.23-.55,11.3Z"/><path class="cls-3" d="m31.77,19.23c-3.52,2.87-11.64-.46-11.64-.46,0,0-2.32-9.49,1.2-12.36,3.52-2.87,8.02-1.2,10.9,2.34s3.06,7.62-.46,10.49Z"/></g><g><path class="cls-5" d="m25.75,30.43c-1.06,4.75-5.57,5.84-10.34,4.78s-7.99-3.88-6.93-8.62,10.76-6.69,10.76-6.69c0,0,7.57,5.79,6.51,10.54Z"/><path class="cls-3" d="m25.19,30.3c-.99,4.44-5.19,5.33-9.65,4.34s-7.48-3.5-6.49-7.93c.99-4.44,10.07-6.25,10.07-6.25,0,0,7.06,5.41,6.07,9.85Z"/></g><g><path class="cls-5" d="m33.37,27.54c-1.38,2.31-3.33,3.76-5.88,2.24-2.55-1.52-2.67-7.48-2.67-7.48,0,0,5.11-2.4,7.66-.88s2.26,3.81.89,6.12Z"/><path class="cls-3" d="m33.06,27.36c-1.29,2.16-3.03,3.57-5.41,2.15s-2.53-7.03-2.53-7.03c0,0,4.81-2.21,7.19-.78,2.38,1.42,2.04,3.51.75,5.67Z"/></g></g></g></svg>