<?xml version="1.0" encoding="UTF-8"?><svg id="Capa_2" xmlns="http://www.w3.org/2000/svg" xmlns:xlink="http://www.w3.org/1999/xlink" viewBox="0 0 262.73 29.97"><defs><style>.cls-1{fill:#888885;}.cls-2{opacity:.5;}.cls-3{fill:#fcd7b2;}.cls-4{fill:#e30613;}.cls-5{fill:#e4bc97;}.cls-6{clip-path:url(#clippath);}.cls-7{fill:none;}.cls-8{fill:#b1b1b1;}.cls-9{fill:url(#Degradado_sin_nombre_119);}</style><linearGradient id="Degradado_sin_nombre_119" x1="-1807.94" y1="975.44" x2="-1807.94" y2="945.45" gradientTransform="translate(2213.55 -947.27) rotate(-.05) scale(1.15 1)" gradientUnits="userSpaceOnUse"><stop offset=".18" stop-color="#1f2025"/><stop offset=".37" stop-color="#383a41"/><stop offset=".51" stop-color="#525769"/><stop offset=".68" stop-color="#919191"/><stop offset=".77" stop-color="#797879"/><stop offset=".88" stop-color="#3e4049"/><stop offset=".97" stop-color="#24252a"/></linearGradient><clipPath id="clippath"><path class="cls-7" d="M255.96,26.35c-2.52-.01-4.53-5.02-4.49-11.18,.04-6.16,2.13-11.59,4.65-11.58,2.52,.01,4.53,5.47,4.49,11.63-.04,6.16-2.12,11.14-4.65,11.13Z"/></clipPath></defs><g id="Capa_1-2"><g><path class="cls-9" d="M252.05,0s-.02,0-.03,0c-.02,0-244.27,.11-244.28,.11C3.47,.12,.29,6.77,.01,15.05c-.27,8.24,3.46,14.92,7.73,14.92,.02,0,244.27-.11,244.28-.11,0,0-228.05,.11-228.04,.11l232.06-.09V.02s-3.99-.02-3.99-.02Z"/><ellipse class="cls-1" cx="256.04" cy="14.97" rx="6.69" ry="14.93"/><path class="cls-8" d="M255.96,26.35c-2.52-.01-4.53-5.02-4.49-11.18,.04-6.16,2.13-11.59,4.65-11.58,2.52,.01,4.53,5.47,4.49,11.63-.04,6.16-2.12,11.14-4.65,11.13Z"/><g><path class="cls-8" d="M256.07,26.35c-2.52-.01-4.53-5.02-4.49-11.18,.04-6.16,2.13-11.59,4.65-11.58,2.52,.01,4.53,5.47,4.49,11.63-.04,6.16-2.12,11.14-4.65,11.13Z"/><g class="cls-6"><g><g><path class="cls-3" d="M259.43,16.11c0-.67-.18-1.25-.46-1.53h.12s0-.09,0-.09l-.42-.09h0s-.06,0-.09,0c-.48,0-.88,.76-.9,1.71s.37,1.71,.86,1.72c.03,0,.06,0,.09,0h0s.42-.09,.42-.09v-.08s-.12,0-.12,0c.29-.28,.49-.86,.5-1.53Z"/><ellipse class="cls-5" cx="259" cy="16.11" rx="1.62" ry=".73" transform="translate(239.35 274.87) rotate(-89.22)"/></g><g><path class="cls-3" d="M259.55,13.31c0-.67-.18-1.25-.46-1.53h.12s0-.09,0-.09l-.42-.09h0s-.06,0-.09,0c-.48,0-.88,.76-.9,1.71-.01,.95,.37,1.71,.86,1.72,.03,0,.06,0,.09,0h0s.42-.09,.42-.09v-.08s-.12,0-.12,0c.29-.28,.49-.86,.5-1.53Z"/><ellipse class="cls-5" cx="259.12" cy="13.3" rx="1.62" ry=".73" transform="translate(242.27 272.22) rotate(-89.22)"/></g><g><path class="cls-3" d="M258.86,14.65c0-.67-.18-1.25-.46-1.53h.12s0-.09,0-.09l-.42-.09h0s-.06,0-.09,0c-.48,0-.88,.76-.9,1.71-.01,.95,.37,1.71,.86,1.72,.03,0,.06,0,.09,0h0s.42-.09,.42-.09v-.08s-.12,0-.12,0c.29-.28,.49-.86,.5-1.53Z"/><ellipse class="cls-5" cx="258.43" cy="14.65" rx="1.62" ry=".73" transform="translate(240.25 272.86) rotate(-89.22)"/></g><g><path class="cls-3" d="M258.29,17.38c0-.67-.18-1.25-.46-1.53h.12s0-.09,0-.09l-.42-.09h0s-.06,0-.09,0c-.48,0-.88,.76-.9,1.71s.37,1.71,.86,1.72c.03,0,.06,0,.09,0h0s.42-.09,.42-.09v-.08s-.12,0-.12,0c.29-.28,.49-.86,.5-1.53Z"/><ellipse class="cls-5" cx="257.86" cy="17.38" rx="1.62" ry=".73" transform="translate(236.96 274.98) rotate(-89.22)"/></g><g><path class="cls-3" d="M258.52,11.75c0-.67-.18-1.25-.46-1.53h.12s0-.09,0-.09l-.42-.09h0s-.06,0-.09,0c-.48,0-.88,.76-.9,1.71-.01,.95,.37,1.71,.86,1.72,.03,0,.06,0,.09,0h0s.42-.09,.42-.09v-.08s-.12,0-.12,0c.29-.28,.49-.86,.5-1.53Z"/><ellipse class="cls-5" cx="258.09" cy="11.75" rx="1.62" ry=".73" transform="translate(242.82 269.66) rotate(-89.22)"/></g><g><path class="cls-3" d="M257.49,14.65c0-.67-.18-1.25-.46-1.53h.12s0-.09,0-.09l-.42-.09h0s-.06,0-.09,0c-.48,0-.88,.76-.9,1.71s.37,1.71,.86,1.72c.03,0,.06,0,.09,0h0s.42-.09,.42-.09v-.08s-.12,0-.12,0c.29-.28,.49-.86,.5-1.53Z"/><ellipse class="cls-5" cx="257.07" cy="14.65" rx="1.62" ry=".73" transform="translate(238.91 271.49) rotate(-89.22)"/></g><g><path class="cls-3" d="M256.51,17.59c0-.67-.18-1.25-.46-1.53h.12s0-.09,0-.09l-.42-.09h0s-.06,0-.09,0c-.48,0-.88,.76-.9,1.71s.37,1.71,.86,1.72c.03,0,.06,0,.09,0h0s.42-.09,.42-.09v-.08s-.12,0-.12,0c.29-.28,.49-.86,.5-1.53Z"/><ellipse class="cls-5" cx="256.08" cy="17.59" rx="1.62" ry=".73" transform="translate(235 273.4) rotate(-89.22)"/></g><g><path class="cls-3" d="M257,11.75c0-.67-.18-1.25-.46-1.53h.12s0-.09,0-.09l-.42-.09h0s-.06,0-.09,0c-.48,0-.88,.76-.9,1.71-.01,.95,.37,1.71,.86,1.72,.03,0,.06,0,.09,0h0s.42-.09,.42-.09v-.08s-.12,0-.12,0c.29-.28,.49-.86,.5-1.53Z"/><ellipse class="cls-5" cx="256.57" cy="11.75" rx="1.62" ry=".73" transform="translate(241.32 268.13) rotate(-89.22)"/></g><g><path class="cls-3" d="M256.1,15.02c0-.67-.18-1.25-.46-1.53h.12s0-.09,0-.09l-.42-.09h0s-.06,0-.09,0c-.48,0-.88,.76-.9,1.71-.01,.95,.37,1.71,.86,1.72,.03,0,.06,0,.09,0h0s.42-.09,.42-.09v-.08s-.12,0-.12,0c.29-.28,.49-.86,.5-1.53Z"/><ellipse class="cls-5" cx="255.67" cy="15.02" rx="1.62" ry=".73" transform="translate(237.16 270.46) rotate(-89.22)"/></g><g><path class="cls-3" d="M255.79,12.06c0-.67-.17-1.25-.44-1.53h.11s0-.09,0-.09l-.4-.09h0s-.06,0-.09,0c-.46,0-.84,.76-.86,1.71s.35,1.71,.81,1.72c.03,0,.06,0,.09,0h0s.4-.09,.4-.09v-.08s-.11,0-.11,0c.28-.28,.47-.86,.48-1.53Z"/><ellipse class="cls-5" cx="255.38" cy="12.06" rx="1.62" ry=".7" transform="translate(239.88 267.25) rotate(-89.23)"/></g><g><path class="cls-3" d="M254.84,16.64c0-.67-.18-1.25-.46-1.53h.12s0-.09,0-.09l-.42-.09h0s-.06,0-.09,0c-.48,0-.88,.76-.9,1.71s.37,1.71,.86,1.72c.03,0,.06,0,.09,0h0s.42-.09,.42-.09v-.08s-.12,0-.12,0c.29-.28,.49-.86,.5-1.53Z"/><ellipse class="cls-5" cx="254.41" cy="16.64" rx="1.62" ry=".73" transform="translate(234.3 270.8) rotate(-89.22)"/></g><g><path class="cls-3" d="M254.66,13.68c0-.67-.18-1.25-.46-1.53h.12s0-.09,0-.09l-.42-.09h0s-.06,0-.09,0c-.48,0-.88,.76-.9,1.71-.01,.95,.37,1.71,.86,1.72,.03,0,.06,0,.09,0h0s.42-.09,.42-.09v-.08s-.12,0-.12,0c.29-.28,.49-.86,.5-1.53Z"/><ellipse class="cls-5" cx="254.23" cy="13.68" rx="1.62" ry=".73" transform="translate(237.08 267.7) rotate(-89.22)"/></g></g></g></g></g><g class="cls-2"><path class="cls-4" d="M256.03,.04h0s-3.98-.04-3.98-.04c-.01,0-.02,.01-.03,.01C252,.01,7.75,.12,7.73,.12,3.47,.12,.29,6.77,.01,15.05c-.27,8.24,3.46,14.93,7.73,14.92,.01,0,10.47-.01,27.08-.01,13.48-.01,30.99-.02,50.22-.02h4.49l166.17-.06c.11,.01,.22,.02,.34,.02,3.7,0,6.69-6.69,6.69-14.94S259.73,.04,256.03,.04Zm.09,3.55h.05c-.05,0-.1,.01-.14,.02h0s.06-.02,.09-.02Zm-4.2,26.27c-1.3,0-16.2,.01-38.07,.02l38.07-.02Z"/></g></g></svg>