<?xml version="1.0" encoding="UTF-8"?><svg id="Capa_2" xmlns="http://www.w3.org/2000/svg" xmlns:xlink="http://www.w3.org/1999/xlink" viewBox="0 0 262.73 29.97"><defs><style>.cls-1{fill:#888885;}.cls-2{fill:#fcd7b2;}.cls-3{fill:#e4bc97;}.cls-4{clip-path:url(#clippath);}.cls-5{fill:none;}.cls-6{fill:#b1b1b1;}.cls-7{fill:url(#Degradado_sin_nombre_119);}</style><linearGradient id="Degradado_sin_nombre_119" x1="-1822.56" y1="975.53" x2="-1822.56" y2="945.55" gradientTransform="translate(2230.42 -947.38) rotate(-.05) scale(1.15 1)" gradientUnits="userSpaceOnUse"><stop offset=".18" stop-color="#1f2025"/><stop offset=".37" stop-color="#383a41"/><stop offset=".51" stop-color="#525769"/><stop offset=".68" stop-color="#919191"/><stop offset=".77" stop-color="#797879"/><stop offset=".88" stop-color="#3e4049"/><stop offset=".97" stop-color="#24252a"/></linearGradient><clipPath id="clippath"><path class="cls-5" d="M255.96,26.35c-2.52-.01-4.53-5.02-4.49-11.18,.04-6.16,2.13-11.59,4.65-11.58,2.52,.01,4.53,5.47,4.49,11.63-.04,6.16-2.12,11.14-4.65,11.13Z"/></clipPath></defs><g id="Capa_1-2"><g><path class="cls-7" d="M252.05,0s-.02,0-.03,0c-.02,0-244.27,.11-244.28,.11C3.47,.12,.29,6.76,.01,15.05c-.27,8.24,3.46,14.92,7.73,14.92,.02,0,244.27-.11,244.28-.11,0,0-228.05,.11-228.04,.11l232.06-.09V.02s-3.99-.02-3.99-.02Z"/><ellipse class="cls-1" cx="256.04" cy="14.97" rx="6.69" ry="14.93"/><path class="cls-6" d="M255.96,26.35c-2.52-.01-4.53-5.02-4.49-11.18,.04-6.16,2.13-11.59,4.65-11.58,2.52,.01,4.53,5.47,4.49,11.63-.04,6.16-2.12,11.14-4.65,11.13Z"/><g><path class="cls-6" d="M256.07,26.35c-2.52-.01-4.53-5.02-4.49-11.18,.04-6.16,2.13-11.59,4.65-11.58,2.52,.01,4.53,5.47,4.49,11.63-.04,6.16-2.12,11.14-4.65,11.13Z"/><g class="cls-4"><g><g><path class="cls-2" d="M259.43,16.11c0-.67-.18-1.25-.46-1.53h.12s0-.09,0-.09l-.42-.09h0s-.06,0-.09,0c-.48,0-.88,.76-.9,1.71s.37,1.71,.86,1.72c.03,0,.06,0,.09,0h0s.42-.09,.42-.09v-.08s-.12,0-.12,0c.29-.28,.49-.86,.5-1.53Z"/><ellipse class="cls-3" cx="259" cy="16.11" rx="1.62" ry=".73" transform="translate(239.35 274.87) rotate(-89.22)"/></g><g><path class="cls-2" d="M259.55,13.31c0-.67-.18-1.25-.46-1.53h.12s0-.09,0-.09l-.42-.09h0s-.06,0-.09,0c-.48,0-.88,.76-.9,1.71-.01,.95,.37,1.71,.86,1.72,.03,0,.06,0,.09,0h0s.42-.09,.42-.09v-.08s-.12,0-.12,0c.29-.28,.49-.86,.5-1.53Z"/><ellipse class="cls-3" cx="259.12" cy="13.3" rx="1.62" ry=".73" transform="translate(242.28 272.22) rotate(-89.22)"/></g><g><path class="cls-2" d="M258.86,14.65c0-.67-.18-1.25-.46-1.53h.12s0-.09,0-.09l-.42-.09h0s-.06,0-.09,0c-.48,0-.88,.76-.9,1.71-.01,.95,.37,1.71,.86,1.72,.03,0,.06,0,.09,0h0s.42-.09,.42-.09v-.08s-.12,0-.12,0c.29-.28,.49-.86,.5-1.53Z"/><ellipse class="cls-3" cx="258.43" cy="14.65" rx="1.62" ry=".73" transform="translate(240.25 272.86) rotate(-89.22)"/></g><g><path class="cls-2" d="M258.29,17.38c0-.67-.18-1.25-.46-1.53h.12s0-.09,0-.09l-.42-.09h0s-.06,0-.09,0c-.48,0-.88,.76-.9,1.71s.37,1.71,.86,1.72c.03,0,.06,0,.09,0h0s.42-.09,.42-.09v-.08s-.12,0-.12,0c.29-.28,.49-.86,.5-1.53Z"/><ellipse class="cls-3" cx="257.86" cy="17.38" rx="1.62" ry=".73" transform="translate(236.96 274.98) rotate(-89.22)"/></g><g><path class="cls-2" d="M258.52,11.75c0-.67-.18-1.25-.46-1.53h.12s0-.09,0-.09l-.42-.09h0s-.06,0-.09,0c-.48,0-.88,.76-.9,1.71-.01,.95,.37,1.71,.86,1.72,.03,0,.06,0,.09,0h0s.42-.09,.42-.09v-.08s-.12,0-.12,0c.29-.28,.49-.86,.5-1.53Z"/><ellipse class="cls-3" cx="258.09" cy="11.75" rx="1.62" ry=".73" transform="translate(242.82 269.65) rotate(-89.22)"/></g><g><path class="cls-2" d="M257.49,14.65c0-.67-.18-1.25-.46-1.53h.12s0-.09,0-.09l-.42-.09h0s-.06,0-.09,0c-.48,0-.88,.76-.9,1.71s.37,1.71,.86,1.72c.03,0,.06,0,.09,0h0s.42-.09,.42-.09v-.08s-.12,0-.12,0c.29-.28,.49-.86,.5-1.53Z"/><ellipse class="cls-3" cx="257.07" cy="14.64" rx="1.62" ry=".73" transform="translate(238.91 271.49) rotate(-89.22)"/></g><g><path class="cls-2" d="M256.51,17.59c0-.67-.18-1.25-.46-1.53h.12s0-.09,0-.09l-.42-.09h0s-.06,0-.09,0c-.48,0-.88,.76-.9,1.71s.37,1.71,.86,1.72c.03,0,.06,0,.09,0h0s.42-.09,.42-.09v-.08s-.12,0-.12,0c.29-.28,.49-.86,.5-1.53Z"/><ellipse class="cls-3" cx="256.08" cy="17.58" rx="1.62" ry=".73" transform="translate(235 273.4) rotate(-89.22)"/></g><g><path class="cls-2" d="M257,11.75c0-.67-.18-1.25-.46-1.53h.12s0-.09,0-.09l-.42-.09h0s-.06,0-.09,0c-.48,0-.88,.76-.9,1.71-.01,.95,.37,1.71,.86,1.72,.03,0,.06,0,.09,0h0s.42-.09,.42-.09v-.08s-.12,0-.12,0c.29-.28,.49-.86,.5-1.53Z"/><ellipse class="cls-3" cx="256.57" cy="11.74" rx="1.62" ry=".73" transform="translate(241.32 268.13) rotate(-89.22)"/></g><g><path class="cls-2" d="M256.1,15.02c0-.67-.18-1.25-.46-1.53h.12s0-.09,0-.09l-.42-.09h0s-.06,0-.09,0c-.48,0-.88,.76-.9,1.71-.01,.95,.37,1.71,.86,1.72,.03,0,.06,0,.09,0h0s.42-.09,.42-.09v-.08s-.12,0-.12,0c.29-.28,.49-.86,.5-1.53Z"/><ellipse class="cls-3" cx="255.67" cy="15.02" rx="1.62" ry=".73" transform="translate(237.16 270.46) rotate(-89.22)"/></g><g><path class="cls-2" d="M255.79,12.06c0-.67-.17-1.25-.44-1.53h.11s0-.09,0-.09l-.4-.09h0s-.06,0-.09,0c-.46,0-.84,.76-.86,1.71s.35,1.71,.81,1.72c.03,0,.06,0,.09,0h0s.4-.09,.4-.09v-.08s-.11,0-.11,0c.28-.28,.47-.86,.48-1.53Z"/><ellipse class="cls-3" cx="255.38" cy="12.06" rx="1.62" ry=".7" transform="translate(239.88 267.25) rotate(-89.23)"/></g><g><path class="cls-2" d="M254.84,16.64c0-.67-.18-1.25-.46-1.53h.12s0-.09,0-.09l-.42-.09h0s-.06,0-.09,0c-.48,0-.88,.76-.9,1.71s.37,1.71,.86,1.72c.03,0,.06,0,.09,0h0s.42-.09,.42-.09v-.08s-.12,0-.12,0c.29-.28,.49-.86,.5-1.53Z"/><ellipse class="cls-3" cx="254.41" cy="16.64" rx="1.62" ry=".73" transform="translate(234.3 270.8) rotate(-89.22)"/></g><g><path class="cls-2" d="M254.66,13.68c0-.67-.18-1.25-.46-1.53h.12s0-.09,0-.09l-.42-.09h0s-.06,0-.09,0c-.48,0-.88,.76-.9,1.71-.01,.95,.37,1.71,.86,1.72,.03,0,.06,0,.09,0h0s.42-.09,.42-.09v-.08s-.12,0-.12,0c.29-.28,.49-.86,.5-1.53Z"/><ellipse class="cls-3" cx="254.23" cy="13.68" rx="1.62" ry=".73" transform="translate(237.08 267.7) rotate(-89.22)"/></g></g></g></g></g></g></svg>