<?xml version="1.0" encoding="UTF-8"?><svg id="Capa_2" xmlns="http://www.w3.org/2000/svg" xmlns:xlink="http://www.w3.org/1999/xlink" viewBox="0 0 272.79 29.95"><defs><style>.cls-1{fill:#888885;}.cls-2{opacity:.5;}.cls-3{fill:#e30613;}.cls-4{fill:url(#Degradado_sin_nombre_119);}</style><linearGradient id="Degradado_sin_nombre_119" x1="-1454.51" y1="975.68" x2="-1454.51" y2="945.67" gradientTransform="translate(1662.73 -947.03) rotate(-.05) scale(1.05 1)" gradientUnits="userSpaceOnUse"><stop offset=".18" stop-color="#1f2025"/><stop offset=".37" stop-color="#383a41"/><stop offset=".51" stop-color="#525769"/><stop offset=".68" stop-color="#919191"/><stop offset=".77" stop-color="#797879"/><stop offset=".88" stop-color="#3e4049"/><stop offset=".97" stop-color="#24252a"/></linearGradient></defs><g id="Capa_1-2"><g><path class="cls-4" d="M261.05,0s-.02,0-.03,0c-.02,0-253,.09-253.02,.09C3.59,.1,.3,6.75,.01,15.03c-.28,8.24,3.59,14.92,8,14.92,.02,0,253-.1,253.02-.1,0,0-236.2,.1-236.2,.1l240.35-.07V.02s-4.14-.02-4.14-.02Z"/><ellipse class="cls-1" cx="265.19" cy="14.97" rx="7.6" ry="14.93"/></g><g class="cls-2"><path class="cls-3" d="M272.79,14.96c0,8.25-3.4,14.93-7.6,14.94-.13,0-.26,0-.39-.02l-149.32,.04c3.36-.01,6.74-.01,10.15-.01-6.9,0-13.77,0-20.51,.01-7.72,0-15.28,0-22.56,.01-33.22,.01-57.72,.02-57.72,.02H8.02C3.6,29.96-.27,23.27,.01,15.03,.29,6.75,3.59,.1,8.01,.1,8.02,.1,261.01,0,261.02,0h.03l4.13,.03h0c4.2,.01,7.61,6.69,7.61,14.93Z"/><path class="cls-3" d="M105.12,29.92h0Z"/></g></g></svg>